<svg xmlns="http://www.w3.org/2000/svg" viewBox="0 0 86.96 102">
  <defs>
    <style>
      .cls-1 {
        fill: none;
      }

      .cls-2 {
        fill: #fff;
      }
    </style>
  </defs>
  <title>Fichier 1</title>
  <g id="Calque_2" data-name="Calque 2">
    <g id="Calque_1-2" data-name="Calque 1">
      <g>
        <path class="cls-1" d="M58,0a2,2,0,0,1,1.46.62,2.08,2.08,0,0,1,.62,1.53V57.82h1.06L73,53.15a1.15,1.15,0,0,1,1.33.37,1.17,1.17,0,0,1,0,1.39L52.86,82.82a1.16,1.16,0,0,1-.91.45,1.14,1.14,0,0,1-.9-.45L29.58,54.91a1.17,1.17,0,0,1,0-1.39,1.15,1.15,0,0,1,1.33-.37L42.43,57.7h1v-41H22.56A2.28,2.28,0,0,1,20.93,16L10.5,3.45c-.56-.61-1.79-2-1.85-2.73S11.26,0,12.13,0H0V102H87V0Z"/>
        <path class="cls-2" d="M74.33,53.52A1.15,1.15,0,0,0,73,53.15L61.16,57.83H60.1V2.15A2.08,2.08,0,0,0,59.48.62,2,2,0,0,0,58,0H12.13c-.87,0-3.42,0-3.48.72S9.94,2.84,10.5,3.45L20.93,16a2.28,2.28,0,0,0,1.63.72H43.42v41h-1L30.91,53.15a1.15,1.15,0,0,0-1.33.37,1.17,1.17,0,0,0,0,1.39L51.05,82.82a1.14,1.14,0,0,0,.9.45,1.16,1.16,0,0,0,.91-.45L74.32,54.91A1.17,1.17,0,0,0,74.33,53.52Z"/>
      </g>
    </g>
  </g>
</svg>
