<svg xmlns="http://www.w3.org/2000/svg" xmlns:xlink="http://www.w3.org/1999/xlink" viewBox="0 0 44.98 30.08">
  <defs>
    <style>
      .cls-1 {
        fill: none;
      }

      .cls-2 {
        clip-path: url(#clip-path);
      }

      .cls-3 {
        fill: #fff;
      }
    </style>
    <clipPath id="clip-path">
      <rect class="cls-1" width="44.88" height="31"/>
    </clipPath>
  </defs>
  <title>Fichier 2</title>
  <g id="Calque_2" data-name="Calque 2">
    <g id="Calque_1-2" data-name="Calque 1">
      <g class="cls-2">
        <path class="cls-3" d="M22.55,18h0a1.73,1.73,0,0,0,.95-.28l.07-.05.05,0,.86-.71L44.93.1a.23.23,0,0,0-.19-.1H.24A.25.25,0,0,0,.09.05l21.4,17.64a1.69,1.69,0,0,0,1.06.35ZM0,2.39v25L15.33,15ZM29.67,15.11,45,27.41V2.47Zm-4.87,4a3.65,3.65,0,0,1-4.5,0l-3.51-2.9L0,29.8v0a.24.24,0,0,0,.24.24h44.5a.24.24,0,0,0,.24-.24v0L28.2,16.32Z"/>
      </g>
    </g>
  </g>
</svg>
