<?xml version="1.0" encoding="utf-8"?>
<!-- Generator: Adobe Illustrator 19.1.1, SVG Export Plug-In . SVG Version: 6.00 Build 0)  -->
<svg version="1.1" id="_x31_0" xmlns="http://www.w3.org/2000/svg" xmlns:xlink="http://www.w3.org/1999/xlink" x="0px" y="0px"
	 viewBox="0 0 512 512" style="enable-background:new 0 0 512 512;" xml:space="preserve">
<style type="text/css">
	.st0{fill:#FFFFFF;}
</style>
<g>
	<path class="st0" d="M112.309,256.315c0.434,2.324,1,4.211,1.707,5.672c0.699,1.461,1.59,2.782,2.667,3.969
		c1.734,1.844,3.817,3.351,6.246,4.539c2.434,1.187,5.211,1.785,8.348,1.785c2.347,0,4.422-0.61,6.32-1.594
		c0.328-0.149,0.707-0.23,1.019-0.402l-0.038-0.039c0.046-0.031,0.105-0.039,0.152-0.07l-10.043-9.886l11.829-11.996l6.058,6.054
		l2.546,2.641c0.008-0.019,0.012-0.051,0.02-0.074l0.129,0.129c0.863-2.48,1.434-5.531,1.699-9.16
		c0.266-3.617,0.402-8.344,0.402-14.179c0-5.512-0.106-10.074-0.324-13.7c-0.215-3.621-0.539-6.613-0.969-8.992
		c-0.434-2.375-1-4.297-1.699-5.758c-0.707-1.453-1.598-2.778-2.676-3.973c-1.621-1.832-3.649-3.316-6.082-4.453
		c-2.43-1.137-5.214-1.707-8.343-1.707c-3.137,0-5.914,0.57-8.348,1.707c-2.43,1.137-4.512,2.621-6.246,4.453
		c-1.078,1.195-1.968,2.52-2.667,3.973c-0.707,1.461-1.274,3.382-1.707,5.758c-0.43,2.379-0.726,5.371-0.891,8.992
		c-0.16,3.626-0.238,8.188-0.238,13.7c0,5.511,0.078,10.082,0.238,13.699C111.582,251.018,111.879,253.991,112.309,256.315z"/>
	<path class="st0" d="M256,14.952c-141.383,0-256,95.617-256,213.558s114.617,213.551,256,213.551c1.848,0,3.672-0.082,5.508-0.118
		l65.934,51.489c0.801,0.629,1.679,1.015,2.531,1.48c0,0,0.004,0,0.008,0.004c5.66,3.082,12.121,2.687,17.238-0.32
		c0.02-0.016,0.047-0.028,0.07-0.039c4.313-2.566,7.645-6.852,8.462-12.516l8.414-59.969c37.594-14.648,70.172-36.714,95.141-63.898
		c0.461-0.5,0.969-0.98,1.426-1.488c2.52-2.797,4.867-5.707,7.222-8.602c1.078-1.332,2.223-2.617,3.266-3.961
		c1.821-2.352,3.485-4.797,5.196-7.215c1.374-1.941,2.816-3.851,4.117-5.832c1.465-2.222,2.774-4.519,4.145-6.785
		c1.328-2.199,2.718-4.371,3.953-6.618c1.485-2.679,2.793-5.438,4.145-8.175c0.906-1.836,1.894-3.653,2.742-5.512
		c1.918-4.226,3.664-8.531,5.262-12.883c0.133-0.355,0.297-0.702,0.426-1.066C508.226,270.557,512,249.905,512,228.51
		C512,110.569,397.383,14.952,256,14.952z M396.676,196.261l0.102-0.16H349.61v-20.102h73.746v17.828l-32.098,50.308l-17.336,27.016
		h0.102l-0.102,0.16h49.434v20.094H347.5v-18.152l32.078-50.222l17.199-26.77H396.676z M257.539,175.999h22.371v75.855
		c0,6.16-1.11,11.726-3.325,16.699c-2.214,4.973-5.246,9.211-9.078,12.722c-3.836,3.508-8.321,6.238-13.458,8.188
		c-5.129,1.941-10.667,2.914-16.613,2.914c-5.942,0-11.485-0.973-16.614-2.914c-5.129-1.95-9.621-4.68-13.453-8.188
		c-3.836-3.511-6.863-7.75-9.074-12.722c-2.214-4.973-3.324-10.539-3.324-16.699v-75.855H217.5v75.05
		c0,6.699,1.785,11.906,5.351,15.633c3.563,3.734,8.43,5.598,14.586,5.598c6.16,0,11.05-1.863,14.672-5.598
		c3.617-3.726,5.43-8.934,5.43-15.633v-74.984V175.999z M88.89,218.788c0.157-4.426,0.59-8.504,1.297-12.234
		c0.703-3.73,1.832-7.156,3.402-10.293c1.566-3.133,3.813-6.16,6.727-9.082c4-3.886,8.48-6.886,13.453-8.992
		c4.973-2.11,10.809-3.16,17.508-3.16c6.699,0,12.531,1.05,17.504,3.16c4.972,2.106,9.402,5.106,13.289,8.992
		c2.922,2.922,5.16,5.95,6.726,9.082c1.57,3.137,2.726,6.562,3.492,10.293c0.746,3.73,1.215,7.809,1.371,12.234
		c0.168,4.43,0.246,9.402,0.246,14.914c0,4.648-0.058,8.914-0.164,12.808c-0.11,3.883-0.375,7.481-0.809,10.778
		c-0.43,3.293-1.137,6.344-2.106,9.16c-0.973,2.805-2.324,5.508-4.05,8.102l9.886,9.883l-11.836,11.836l-10.371-10.051
		c-3.137,1.942-6.625,3.461-10.461,4.539c-3.836,1.082-8.074,1.621-12.718,1.621c-6.699,0-12.535-1.05-17.508-3.16
		c-4.973-2.11-9.453-5.106-13.453-8.992c-2.914-2.922-5.161-5.946-6.727-9.082c-1.57-3.129-2.699-6.562-3.402-10.297
		c-0.706-3.726-1.14-7.797-1.297-12.23c-0.164-4.43-0.246-9.402-0.246-14.914C88.645,228.19,88.726,223.217,88.89,218.788z
		 M327.562,175.999v115.406h-22.527V175.999H327.562z"/>
</g>
</svg>
