<svg id="Logo" xmlns="http://www.w3.org/2000/svg" viewBox="0 0 500 500">
  <defs>
    <style>
      .cls-1 {
        fill: #fff;
      }

      .cls-2 {
        fill: none;
        stroke: #fff;
        stroke-miterlimit: 10;
      }
    </style>
  </defs>
  <title>Plan de travail 1</title>
  <g>
    <g>
      <path class="cls-1" d="M150.57,277.22a25.71,25.71,0,0,1-7.31-.79c-2-.57-3.65-2.43-4.56-5.41-5.24-17.18-5.22-37.47-6.34-55.81-6.85.34-10.25.44-17,.54.21,15.28,3.77,39.46-5.82,53.15-3,3.25-5.39,4.63-7.17,4.31s-3.15-1.91-4-4.63a88.69,88.69,0,0,1-2.9-14.1c-.28-2-.63-4.21-1-6.42A298.5,298.5,0,0,1,91,210.15a258.85,258.85,0,0,1,5.38-60.29c1.2-5.79,2.83-10,4.26-12.26s4.2-4.13,8.42-5.46l2.53-.84a9,9,0,0,1,4.42-.42c1.11.25,1.67,2.05,1.6,5.19-.35,14.77-1.93,30-2.41,45.06-.16,7.49-.15,11.21,0,18.57,6.67-.42,10.05-.67,16.86-1.28.56-22.37.44-51.38,14.84-70.13a64.52,64.52,0,0,1,5.19-5.66,12.21,12.21,0,0,1,5.16-3.15c2.24-.59,3.71-.06,4.41,1.62,1.18,3,2,9.09,2.31,18.36.09,2.57.26,5.25.47,8,1.24,16.13,1.52,32.59,2.07,48.88.81,24.31,4.14,50.08,1.59,74.38a6.31,6.31,0,0,1-3.53,4.39C162.43,276.19,157.8,277.1,150.57,277.22Z"/>
      <path class="cls-1" d="M219.39,264.6c-5,1.21-9.42,1.11-13.32-.32A23.54,23.54,0,0,1,195.92,257a43.78,43.78,0,0,1-7.18-13,91.35,91.35,0,0,1-4.35-17.48,154.5,154.5,0,0,1-1.86-20.2c-.36-17.06.71-34.72,4.05-51.42,2.48-12.46,6.29-25.4,13.54-36,5.95-8.67,13.43-13.4,22.17-14.7a35.3,35.3,0,0,1,14.74,1,11.64,11.64,0,0,1,5.87,3.2,6.67,6.67,0,0,1,1.84,4.37,6,6,0,0,1-1.74,4.16,7.88,7.88,0,0,1-4.7,2.36,12.39,12.39,0,0,1-3.06,0,13.19,13.19,0,0,0-3.65.17,19.43,19.43,0,0,0-7.46,3.16,23.61,23.61,0,0,0-7,7.79,38.58,38.58,0,0,0-4.41,13.64,259.83,259.83,0,0,0-3.1,38.19c6.89-2,10.37-3,17.35-4.76,2.54-.65,4.48-.19,5.8,1.36a8.62,8.62,0,0,1,2,5.9,13,13,0,0,1-2.16,6.81,10.22,10.22,0,0,1-6.39,4.42c-6.54,1.71-9.8,2.61-16.28,4.51a152,152,0,0,0,3.32,27.4c2.95,12.42,6.75,17.61,11.4,16.46,3-.74,5.85-3.32,8.7-7.83,2.54-4,5-6.37,7.31-6.9a2.89,2.89,0,0,1,3,.83,5.2,5.2,0,0,1,1.09,3.71c-.07,3-1.18,6.57-3.29,10.55a50,50,0,0,1-9.84,13.46A27,27,0,0,1,219.39,264.6Z"/>
      <path class="cls-1" d="M277.56,251.75c-8.18,1.7-14.3-1.8-18.08-11.22-4.42-11-5.42-23.57-5.79-35.36-.44-13.93-.5-28,0-42,.64-18.72-.62-39.25,3.08-57,.59-2.86,2.07-4.67,4.06-5.28a29.86,29.86,0,0,1,7.52-1.08l4.13-.13c7.34-.1,12.18.83,14.5,2.56s3.49,4.79,3.39,9.57c0,2-.14,4.38-.28,7.1-.31,5.91-1,13.64-2,23.55-1.49,14.16-3,28.4-3.93,42.53-.86,13.14-2.47,27.15.19,40.27.77,2.8,1.85,4.5,3.23,5.15a7.33,7.33,0,0,0,4.63.45c2.63-.53,4.57-.08,5.81,1.33a6.7,6.7,0,0,1,1.64,5.16c-.32,4.46-3.46,7.91-9.34,10.53A62.56,62.56,0,0,1,277.56,251.75Z"/>
      <path class="cls-1" d="M328.64,240.57c-8.12,2-14-1.34-17.16-10.68-3.78-11-4.1-23.47-3.74-35.11.41-13.53,1.1-27.07,2.29-40.48,1.42-16.08,1.25-34.73,6.13-49.4a4.93,4.93,0,0,1,4.25-3.53,37.18,37.18,0,0,1,7.36.06c1.6.14,2.4.22,4,.38,7.06.76,11.59,2,13.7,3.41s3,3.79,2.7,7.44c-.14,1.54-.35,3.37-.63,5.53-.6,4.7-1.6,11.07-3.13,19.6-2.29,12.77-4.46,25.72-6,38.56-1.49,12.5-3.77,25.88-1.72,38.54.65,2.69,1.65,4.32,3,4.94a7.76,7.76,0,0,0,4.64.47c2.67-.46,4.6,0,5.8,1.35a5.81,5.81,0,0,1,1.43,4.82c-.51,4.13-3.86,7.28-9.95,9.89A82.15,82.15,0,0,1,328.64,240.57Z"/>
      <path class="cls-1" d="M383.22,230.88c-2.4.16-5.62-.46-9.62-1.84s-7.77-6.6-10.6-16.26c-4.05-13.82-2.72-28.57-1.75-42.91.21-2.29.43-4.55.75-6.65,1.89-12.19,4.22-24.72,10.19-35.78,4.34-8,9-11.94,13.91-13.29a12.63,12.63,0,0,1,8.33.39c1.85.73,4.41,2.45,7.71,5.43s7.1,9.18,11.08,18.92a84.82,84.82,0,0,1,6,34.3,85.32,85.32,0,0,1-2.34,19.09,67.39,67.39,0,0,1-6.05,15.46C406,216.4,400.48,223,394.29,226.9A23.76,23.76,0,0,1,383.22,230.88Zm9.35-17.73c3,0,6.12-4.56,9.28-13.14a97.29,97.29,0,0,0,5.3-27.6c.56-11.39,1.27-23-1.33-34.17-1.52-6.52-3.28-10.05-4.84-10.74-2.2-1-3.92,2.11-6,10.27-2.78,10.8-4.08,22.23-5.4,33.32-1.28,10.71-3,22.29-1.52,32.92C388.89,210.05,390.56,213.14,392.57,213.15Z"/>
      <path class="cls-1" d="M139.22,389.39c-2-.09-4.93-.92-8.78-2.62-14.27-7.43-21.79-26.24-28.53-39.76,1.21,9,2,17.85,2.31,26.87a46.41,46.41,0,0,1-.15,8.61c-.5,3.18-1.78,4.74-3.87,4.58s-5.18-1.25-8.86-3.4c-25.14-16.55-32.78-64.21-40-90.4-2.23-8.3-3.61-13.93-4.25-16.8-.23-1.06-.41-2-.55-2.72-.46-2.55-.36-3.8.39-3.77s2.12.68,4.39,1.88c1.81.95,3.57,1.93,5.11,2.89a21.41,21.41,0,0,1,4.36,3.42,33.16,33.16,0,0,1,5.91,10.05c3.87,9.5,7.71,19,11.6,28.52C83,328.38,87.87,340,92.69,351.69A402.39,402.39,0,0,0,81.8,298.11c-1.33-5-1.32-8.29.22-9.75s3.94-1.78,7.14-.89a49.73,49.73,0,0,1,14.26,6.83c4,2.69,6.54,5.12,7.62,7.37,4.08,8.47,7.7,17.2,11.3,25.84,4.29,10.31,8.52,20.73,12.65,31.16-.39-19.85-3-39.4-6.31-58.89a4.07,4.07,0,0,1,1.07-3.87,6.09,6.09,0,0,1,4.69-1.34,8.1,8.1,0,0,1,5,2,6.84,6.84,0,0,1,2.41,4.21c3.78,25,5.77,50.82,3.53,76.44a42.77,42.77,0,0,1-1.36,8.05C143.14,388.08,141.59,389.49,139.22,389.39Z"/>
      <path class="cls-1" d="M322.68,384.05c-2.34,0-3.71-2.15-4.1-6.33s-.64-7.39-.73-9.79c-1.09-12.1-1.83-32.17-18.42-32.79l-.11,0c-1.52,13.84-3.31,30.7-12.13,42.16-3.73,3.89-6.47,5.85-8.28,6-1.38.12-2.31-.22-2.8-1-1.23-1.9-1.94-7-2-14.67,0-1.79,0-3.67-.1-5.56-.41-10.86-.28-21.81,0-32.7.34-15.91.2-32.08,1.71-47.82a33.93,33.93,0,0,1,1.18-6.55,7.26,7.26,0,0,1,3.42-4.12c2.08-1.27,6.08-2.55,12-3.88a43.39,43.39,0,0,1,4.62-.81,4.49,4.49,0,0,1,3.46.8q2.7-.76,5.23-1.38c1.15-.27,2.65-.59,4.52-1a21.55,21.55,0,0,1,6.23-.2c6.27.66,10.92,3.12,14,7.73,3.47,5.19,4.91,11.85,4.27,19.5a49.1,49.1,0,0,1-5.42,17.86,56.18,56.18,0,0,1-13.54,16.95c11.35,10,11.72,26.55,12.42,40.5,0,3.07-.06,5.82-.22,8.22a13.74,13.74,0,0,1-1.79,6.46C325,383.26,323.93,384.05,322.68,384.05ZM304,322.55a32.38,32.38,0,0,0,8.65-11.95A41.57,41.57,0,0,0,316,297.43c.39-5.78-.65-10.79-3.21-14.91-2.2-3.56-5.7-5.75-10.34-6.54.18,9.76-.28,19.55-.74,29.26-.25,5.25-.64,11-1.1,17.4A19,19,0,0,1,304,322.55Z"/>
      <path class="cls-1" d="M361.39,380.18c-7.1-.15-11.87-5.47-14.57-15.12-2.82-10.08-3-20.72-3-30.95s.79-20.86,1.85-31.16c1.53-14.77,1.79-30.74,5.47-44.73.7-2.69,2.09-4.55,3.88-5.34a25.69,25.69,0,0,1,6.69-1.82c1.46-.22,2.19-.32,3.66-.52,6.51-.79,10.81-.15,12.83,1.6s3,5.1,2.73,9.88c-.11,2-.28,4.32-.51,6.87-.5,5.54-1.37,12.38-2.77,20.46-1.92,11.07-4.07,22.27-5.7,33.35-1.58,10.82-3.86,22.4-2.51,33.47.46,2.66,1.25,4.45,2.39,5.34a6.66,6.66,0,0,0,4,1.43c2.31.1,3.95.95,4.89,2.57a7.82,7.82,0,0,1,.91,5.33c-.72,4.26-3.75,7-9,8.32A43.57,43.57,0,0,1,361.39,380.18Z"/>
      <path class="cls-1" d="M408.48,385.24a28.47,28.47,0,0,1-15.14-5,6.05,6.05,0,0,1-3,.71c-1.39-.06-2.25-1-2.58-2.73a25.7,25.7,0,0,1-.09-7c.16-1.7.82-7.28,2.11-16.18,2.3-15.82,5.8-31.72,8.61-47.46,3.15-17.57,4.47-36.18,8.77-53.62a6.23,6.23,0,0,1,3.8-4c1.86-.72,4.8-.94,8.76-.52a52.91,52.91,0,0,1,7.44,1.25,7.13,7.13,0,0,1,4,2.19,26.62,26.62,0,0,1,10.86.47,25.17,25.17,0,0,1,13.1,8.57,48,48,0,0,1,8.67,15.94,67.86,67.86,0,0,1,3.38,20.26,83.36,83.36,0,0,1-2.73,22.26,167.44,167.44,0,0,1-5.74,17.87,125,125,0,0,1-8.29,17.48,84.83,84.83,0,0,1-10.86,15.05,50.14,50.14,0,0,1-13.71,10.81A32.74,32.74,0,0,1,408.48,385.24ZM410.43,368c10.11.72,17.33-9.89,21.29-17.8a164.87,164.87,0,0,0,11.43-30.31c1-3.5,1.82-7.62,2.7-12.11A93,93,0,0,0,447.54,294c.42-8.95-1.19-16-4.34-21a14.74,14.74,0,0,0-10.11-6.9,209.45,209.45,0,0,1-4.28,35c-4.38,22.18-11.11,45.61-22.25,66.05A15.65,15.65,0,0,0,410.43,368Z"/>
    </g>
    <g>
      <path id="globe" class="cls-2" d="M216.43,400.1c-26.93.5-48.21-24.42-52-49-4.11-27,16.3-64.84,45-71.16,31.48-6.94,51,27.54,50.75,54.59C260,359.55,247.05,399.54,216.43,400.1Z"/>
      <g id="continents">
        <path class="cls-1" d="M251.34,337.38s-.3.32-.46.52-.42.22-.88.32-.37.19-.72.27-.23.36-.55.47-.57.2-.77.25-.2-.29-.33-.26-.17-.11-.19-.22a.22.22,0,0,1,0-.08v-.58a.65.65,0,0,0-.31-.52c-.17-.13-.18-.3-.41-.58s-.58-.64-.92-.65,0-.24-.5-.9-.17-.26-.28-.79c0-.21-.1-.29-.16-.33s-.23-.07-.44-.3c-.36-.4-.29-.24-.36-.4a3.64,3.64,0,0,1-.06-.79c0-.14-.41-1-.56-1.47s-.39-.14-.29-.28,0-.16-.08-.32a2.26,2.26,0,0,1-.21-.62,3.21,3.21,0,0,0-.73-1.54c-.34-.41-.23-.35-.25-.69s-.61-.81-.62-1-.21-.58-.13-.47.31.61.43.81,0,.16.53.55.13-.16.15-.64a4.33,4.33,0,0,0-.07-.62,3.23,3.23,0,0,0-.38-1.19c-.1,0-.18,0-.47,0s-.22-.05-.51,0-.23-.23-.69-.14-.49.49-.84.73-1-.34-1.21-.35a6.11,6.11,0,0,0-.89.16c-.1,0-.2-.08-.32-.12a.36.36,0,0,0-.18,0,2.05,2.05,0,0,1-.73-.18,1.88,1.88,0,0,1-.44-.37c-.24-.27-.57.06-.8.1s-.32.46-.49.68,0,.71.06,1-.16.12-.33.33-.65.16-.9,0-.09-.17-.3-.36-.74.05-.9.07-.23,0-.3-.4-.35-.48-.35-.48-.64,0-.92.07-.53,0-.73,0-.21-.11-.31-.21-.17-.17-.28-.15-.34-.22-.34-.22a.72.72,0,0,1-.16-.49c0-.27.21-.45.31-.7s-.12-.59-.21-.71.23-.65.23-.65-.34.34-.36.11-.51-.24-.51-.24l-.52.22s-.41.12-.53.14-.53.14-.53.14l-.71.11s-.37.16-1.15.43a3.23,3.23,0,0,1-1,.25,2.49,2.49,0,0,0-.42.17,2.7,2.7,0,0,0-.67.35c-.15.17-.19.32-.36.35a1.61,1.61,0,0,0-.68.34c-.33.24,0,0-.11.21s-.15.23-.24.25l-.14,0c-.21,0-.23-.07-.37-.09s-.26.06-.44.08l-.57.09a1,1,0,0,1-.46-.11.7.7,0,0,0-.52-.29c-.32,0-.25.23-.25.23s0,.25-.06.44-.2.47-.18.7-.34.31-.42.51-.3.25-.57.43-.5.19-.66.55a4.66,4.66,0,0,0-.41.89c0,.24-.2.37-.19.66a2.4,2.4,0,0,0,.14.59c0,.13,0,.26,0,.39a1.27,1.27,0,0,0-.33.72c0,.33-.68.42-.68.42a3.88,3.88,0,0,0-.63.6,1.79,1.79,0,0,1-.64.45h0c-.12.09.13.6-.6,1.17a2.37,2.37,0,0,0-.78,1.55,2.58,2.58,0,0,1-.31.58,2.19,2.19,0,0,0-.24.77,8.13,8.13,0,0,0-.63,1.08c-.17.42-.13.22-.16.56s.12.32.23.53.06.18.31.22,0,.61.06,1,.06.22.08.64-.06.59,0,1.09c0,.17,0,.27,0,.36a.42.42,0,0,1-.08.31c-.08.17-.39.9-.39.9a1.87,1.87,0,0,0-.06.53l0,.55c0,.29,0,0-.07.45s0,0,0,.34.38.47.38.47l0,0,.19.21c.21.22.63,0,.63,0-.09.3.19.41.33.45h.09a1.35,1.35,0,0,0,.41.42c.2.08.16.19.45.35a1,1,0,0,1,.39.46l.08.16s0,.41,0,.54.35.29.49.39a1.78,1.78,0,0,0,.57.23.76.76,0,0,1,.2.08c.15.1.2.23.34.33s1.05.6,1.05.6a6.49,6.49,0,0,1,.88.41c.38.22.5,0,.5,0l.12-.05.37-.16a3.36,3.36,0,0,1,.56-.42,3.07,3.07,0,0,1,.79-.42l1-.25c.39-.1.19.09.44.16a.61.61,0,0,0,.41-.07l.11-.06.42-.29a2.89,2.89,0,0,0,.46-.29,1.71,1.71,0,0,1,.59-.42c.21-.05.25-.29.5-.35A.32.32,0,0,0,224,348l.15-.07.6-.25h0a5.47,5.47,0,0,1,.84-.2c.33-.08.3.11.75.35s.09.33.06.74.13.32.41.25.57-.32.81-.38a4.05,4.05,0,0,0,.8-.46h0l.28.36a2,2,0,0,1,.48.58.73.73,0,0,1,0,.78,2.5,2.5,0,0,0-.09.25,5.83,5.83,0,0,0-.15.73,2.12,2.12,0,0,0,0,.33c0,.27-.28.56-.35,1.24s.62,1.4,1.23,1.92a4.07,4.07,0,0,0,.34.29,1.2,1.2,0,0,1,.34.43,2.13,2.13,0,0,1,.18.68,8.19,8.19,0,0,0,.19,1.14c.21.65.59.64.37.7s-.08,1.1.14,1.22.28,1.19-.19,2.11a17.09,17.09,0,0,0-1,3.63c0,.18-.05.33-.07.46-.1.91,1.3,3.64,1.29,3.65a22.2,22.2,0,0,1,.26,2.78,4,4,0,0,0,.69,1.85,1.13,1.13,0,0,1,.08.19,4.57,4.57,0,0,0,.48,1.86c.45.8-.22,1.62.21,2.66s.82.56,1.41-.06.92-.17,1.2-.22.94-.68,1.36-.76.34-1,1.2-1.56a2.35,2.35,0,0,0,1.2-2,4,4,0,0,1,1.22-2.08,1.18,1.18,0,0,0,.3-1.36c0-.09-.05-.18-.08-.28-.24-.84,1.17-1.64,1.17-1.64.24-.06.43-.56.55-1.55a2.7,2.7,0,0,0-.32-2.11c-.38-.48.17-.76.42-1a5.15,5.15,0,0,0,.68-.87c.21-.33.3-.69.44-.9s.73-.59.91-.82a6,6,0,0,0,.77-1.11,1.27,1.27,0,0,0,.21-1.07,7.11,7.11,0,0,1,0-1.53,5.66,5.66,0,0,1,.1-1.21s-.06-.21-.13-.48-.21-.8-.26-1.14c-.08-.59,0-.9-.1-1.13a2.22,2.22,0,0,1-.21-1.09c0-.6.29-.32.31-.75v0c0-.49.05-.67.25-.89s-.06-.78.21-.93.47-.65.56-.81a.12.12,0,0,0,0-.06,7.12,7.12,0,0,0,.45-.66c.06-.14.51-.94.61-1.22a7,7,0,0,1,.7-1c.1-.15.43-.27.5-.45a6.35,6.35,0,0,1,.7-1.23,5.06,5.06,0,0,0,.63-1.24,14.19,14.19,0,0,1,.59-1.81c.39-1,.45-2.79.68-3.21S251.34,337.38,251.34,337.38Zm-35.09-4.73.21,0,.14,0Z"/>
        <path class="cls-1" d="M175.83,318.85a2.62,2.62,0,0,0,.42-.31,10.79,10.79,0,0,0,.56-1.14c.09-.12-1.13.2-1.13.2-.13.26-.47,1-.57,1.2s0,.89-.12,1-.34.84-.51,1.05a3.66,3.66,0,0,0-.34.78l.28.41.43-.24c.08-.22.17-.44.26-.66l.53-.3-.15-.51c0-.21,0-.43,0-.64Z"/>
        <path class="cls-1" d="M183.68,318.58a.76.76,0,0,1,.83.27c.14.24.2.31.4-.18s0-.62.57-1.12.77-.93.06-.86a9.26,9.26,0,0,1-1.15,0c-.52,0-.88.58-1,.3s.74-.84.74-.84.56-.84.09-.55-1.38.52-1,.22-.37-.22-.37-.22l-.21-.41s-.69.19-.57,0-.6.05-.47-.1.19-.58.09-.5-.84,0-1.28.4,0,.9.13.78a.68.68,0,0,1,.49,0l-.48.39c-.1.07-.8.67-.8.67l.2-.51c.07-.19.13-.37.19-.56l-.09-.38-.65.51-.54.42-.32.46c0-.27.11-.53.17-.79l-.35.72c-.11.21.27,1.72.14,1.8S178,318,178,318a5.21,5.21,0,0,0,.22-.69c0-.2-.5-.42-.5-.42l-.64,1.21c-.13.22-.25.44-.38.65.05.21.09.43.13.64l.62-.32c-.2.22-.38.43-.56.65,0,.11.08.22.12.33l.5-.31a6.61,6.61,0,0,0,1.36-.62l1.12-.73c.07-.19.14-.38.22-.58,0,0,.8-.11,1,.25s.69.23.77.58a1.08,1.08,0,0,1-.35,1c-.29.26-.35,1.16-.35,1.15a.52.52,0,0,1-.2.47c-.23.16-.73.21-.87.4s-.44.56-.44.56-.42,1.16-.06.93.23-.31.46-.46,1.11-1.11,1.38-.34.74.49.95.4.88-.05.85-.19.48-.39-.1-.7-.36-.74,0-.48.72.33.81-.28.54-.9,0-1.24-.61-.6-.61-.59A1.93,1.93,0,0,1,183.68,318.58Z"/>
        <path class="cls-1" d="M186.86,328.45l-.56.42.06.07a4,4,0,0,0-.49,1.09,2.22,2.22,0,0,1-.44,1.09,3.8,3.8,0,0,0-.24,1.32L186,332a3.78,3.78,0,0,0,1.09-1c.06.09.11.2.17.31h.4a1,1,0,0,0,.34-.36.9.9,0,0,0,.07-.48,1.58,1.58,0,0,1-.12-.15c0-.15-.09-.3-.13-.45l-.09-.47a.92.92,0,0,0-.64.28c-.2.29-.35.19-.35.19l.15-.48a1.67,1.67,0,0,0-.53.23C186.53,329.35,187.35,328.08,186.86,328.45Z"/>
        <path class="cls-1" d="M174.58,315.17l.47-.35.17.21.37-.15c-.05-.22-.09-.43-.13-.65l-.42-.06c-.13.08-.26.15-.39.24L174,315a3.18,3.18,0,0,0,.43-.06Z"/>
        <path class="cls-1" d="M174.6,317.69c.21-.12.49-.1.5-.36s0-.57,0-.57c0-.16,0-.34,0-.51l-.6.17c0,.13,0,.27.08.39s0,.7-.1.51-.27-.78-.34-.62-.28.8-.28.8l.25.47Z"/>
        <path class="cls-1" d="M172.84,320.73l.5.09s-.05.61.34.39.3-.52.3-.52l.63-.52c.15-.15-.17-.86-.18-.86l.31-.18s.25-.76.11-1-.44.5-.61.6l-.5.28-.23.43c0,.22,0,.43,0,.64l-.36,0C172.82,320,172.84,320.73,172.84,320.73Z"/>
        <path class="cls-1" d="M204.44,301.46c-.34.48-.35.33-.68.6a2.07,2.07,0,0,0-.64.69,2.8,2.8,0,0,1-.67.77c-.22.19-.15-.17-.41-.2s-1.14,1.37-1,1.48.49-.45.9-.8,0,.25-.09.32a9.86,9.86,0,0,0-.57.94l.76-.4-.28.7s.58-.53.74-.5a1.67,1.67,0,0,0,.9-.39c.27-.23.57-.48.56-.64a5.55,5.55,0,0,1,1.11-1.45,4.11,4.11,0,0,0,.78-1.49C205.66,300.66,204.77,301,204.44,301.46Z"/>
        <path class="cls-1" d="M175.53,317.32a2.43,2.43,0,0,1,.54-.34c.16,0,.43-.33.43-.33s-.05-.65-.22-.55a5.35,5.35,0,0,0-.52.45Z"/>
        <path class="cls-1" d="M181.21,352a10.39,10.39,0,0,0-1.72-.54c-1-.2-.93,0-1.2-.12s-.24-.15-.58,0a1.54,1.54,0,0,0-.67.74.35.35,0,0,0,0,.32c.08,0,.57-.6.74-.63s.19.26.41.17a.85.85,0,0,1,.7,0c.17.11.4-.19.4-.19s.29.26.24.38.32,0,.32,0,.09.25,0,.31A2.37,2.37,0,0,0,181.21,352Z"/>
        <path class="cls-1" d="M206.31,359.36c-.34-.34,0-.81-.47-.64s-.29.38-1.07.24a9.73,9.73,0,0,1-1.35-.38,3.58,3.58,0,0,0-1.22-.27,4.39,4.39,0,0,0-.7.23c-.3.12-.53.32-.78.29a.89.89,0,0,0-1.15.46l-.12.26a3.42,3.42,0,0,0-.2-.59c-.11-.26-.14-.25-.71-.27a10.5,10.5,0,0,0-1.18,0,.64.64,0,0,0-.54.42l-.09.25a.53.53,0,0,0,0-.46c-.2-.24-.4-.13-.58-.05s-.62.19-.62.19-.37-.13-.11-.39.29-.32.15-.55.05-.09-.41-.18-.34-.22-.53-.45-.56-.59-.56-.59l-.23,0-.09,0a4.64,4.64,0,0,0-1.32-.13.19.19,0,0,1-.08,0c-.22.06-.56,0-.84.1l-.57.18-.05,0c-.15-.07-.6-.32-.74-.26s-.69-.76-1-.65l0,0a3.42,3.42,0,0,1-.7,0s.29-.39.11-.49-.17,0-.51,0-.88-.1-.52-.22.26-.17.26-.17l-1,.18a1.16,1.16,0,0,1-.25.49c-.14.09-.4-.18-.69-.08s-.25.26-.52.35a.28.28,0,0,1-.35-.19s-.15-.2-.29-.16L184,356c-.14,0-.53.56-.24.78s.53.45.34.52-.45.07-.54-.23.12-.61-.08-.77a.52.52,0,0,1-.17-.17s0-.08,0-.14l.19-.25s.1-.28-.16-.11-.24.16-.31.33-.1.35-.29.41a.24.24,0,0,0-.2.3.35.35,0,0,1-.05.22s-.22-.38-.28-.21-.39.31-.29.55.23.61.23.61-.52.23-.38.59a.83.83,0,0,1-.09.7s.18-.8-.27-.93-.42-.24-.71-.11-.2.45-.41.53a.61.61,0,0,0-.16.09c-.07.06-.16.09-.5-.07s-.48-.18-.56-.37a.85.85,0,0,0-.36-.12c-.08,0-.12,0-.29,0s-.44.06-.46.13c.12.24.33.7.68.69s.44,0,.63.18a.38.38,0,0,0,.48.08c.21-.07.58,0,.66.18s.55.22.36-.07-.18-.16-.22-.17l0,0,0-.09c.11-.21.1-.31.18-.39s.31-.28.46-.11a2,2,0,0,1,.29.52c0,.11.28.16.38.29s.58,1.52.62,1.61.22.55,0,.73-.32.18-.2.44.19.18.12.25,0,0,0,0-.07.33-.16.36-.35.06-.12.41.1.48.07.56-.09.17.06.52.3.77.54.58.16.24.18.4-.12.12-.1.18,0,.37.21,1c.06.14,0,.56.34.57a1.31,1.31,0,0,1,1,.57,7.29,7.29,0,0,1,1.06,1.37,5.07,5.07,0,0,0,1.09,1.12c.23.25.43.51.43.51a1.9,1.9,0,0,0,.78.68c.55.26.91.43,1.2.53s.72-.08,1,.18a3.57,3.57,0,0,0,.78.63l.1,0c.13.08.26.23.27.14a34.62,34.62,0,0,1,1.54,3.12c.34.79,1.53,3.29,1.54,3.3s.78,1.21.53,1.12.28.38.44.62a2.93,2.93,0,0,1,.41.7c.23.52.62,1.28.73,1.54s.61,1.54.61,1.54-.33.06.08.45.91.53,1,.89,0,.81.34,1.09.46.81.62.75.09.28.35.72.44.56.48.41-.21-.49-.38-.81-.31-.66-.16-.61a1.6,1.6,0,0,1,.49.58c0,.12.25.47.46.82a6,6,0,0,1,.36.79c0,.13,0,.26,0,.4s-.29-.06-.2.15a6.32,6.32,0,0,1,.2.72,4.82,4.82,0,0,1,.54-.15c.15,0,.32-.17.36-.08s.08.62,0,.67,0,.64,0,.64a6.93,6.93,0,0,0,.7.66,2.79,2.79,0,0,1,.74.59h0a1.69,1.69,0,0,1,.24.26,2.08,2.08,0,0,0,.66.58s.09-.11.27.07a1.24,1.24,0,0,0,.47.27s.1.18.19.21a2.38,2.38,0,0,0,.33.06,3.32,3.32,0,0,0,.73.33,1.23,1.23,0,0,1,.64-.15,1.66,1.66,0,0,0,.72,0l.65-.25,0,0a1.29,1.29,0,0,1,.23-.2,1.56,1.56,0,0,1,.36-.15,3.13,3.13,0,0,0,.37-.11c.12-.13.23-.26.36-.39a2.25,2.25,0,0,1-2.22-.16c-1-.78-.55-.58-1.12-.91s-1-.53-.69-.7.32,0,.16-.55-.28-.66-.12-.79.33.15.05-.54-.46-.59-.72-.5a.64.64,0,0,1-.81-.29c-.3-.38-.39-.8-.09-1s.23-.56.17-.71-.4-.1-.23-.53.41-.57.08-.66-.76.07-.89-.16-1-.55-.38-.71.95.12,1-.19.17-.39-.14-.66-.91-.64-.67-.72,1.55-.23,1.71-.79a1.46,1.46,0,0,0,0-1.16c-.15-.34-.27-.22-.62-.51s.26-.53-.23-.61-.85,0-1-.22c0-.07,0-.11,0-.13a4.61,4.61,0,0,1,.68-.05c.54-.05.76.3,1.15,0s.69-.33.76-.67v0a5,5,0,0,0-.26-1.65,3.27,3.27,0,0,1-.08-1,.48.48,0,0,1,.29.47c0,.37.13,0,.13-.57s-.14-.76.12-1.16.29-.51-.12-.88-1-.66-.82-1.05.44-1.1.59-1.35.66-1.1,1.08-1.14a3.88,3.88,0,0,0,1.32-.31c0-.1-.43-.37,0-.47s.35-.29.35-.29c-.06-.28-.11-.55-.17-.82a2,2,0,0,0,0-.8c-.09-.22-.16-.48-.29-.79s.14-.32,0-.75-.85-2.16-1.11-2.77.21-.35.37-.24-.07-.07,0-.57-.08-.59,0-.82a2.86,2.86,0,0,1,.51-.83,1.46,1.46,0,0,0,.21-1.54A3.73,3.73,0,0,0,206.31,359.36Z"/>
        <path class="cls-1" d="M202.94,393.42s0,.08,0,0Z"/>
        <path class="cls-1" d="M250.29,355.77c-.41-.6-.35-.24-.35-.24s-.12.72-.13,1-.11.3-.32.72-.34.59-.52,1-.67.43-.81.74-.62.66-.8,1-.11.46-.14,1.13a2.44,2.44,0,0,0,.26,1.24c.17.54-.19.37-.45,1.06s-.32.56-.51,1.19.08.63.2.79,0,.55-.11,1,0,.36.36.89.71-.15.94-.19.55-.57.55-.57c.53-2.1,1.1-4.17,1.55-6.13,0-.05,0-.1,0-.16-.05-.56-.06-.89.26-1s.11-.4.11-.4-.13-.11-.14-.63.32.12.42,0a3.57,3.57,0,0,0,0-1.41C250.7,356.15,250.69,356.37,250.29,355.77Z"/>
        <path class="cls-1" d="M169.12,320.37c.26-.18,1.29-.45.94-.22s-.6.52-.48.53a9.59,9.59,0,0,0,1-.54,2.72,2.72,0,0,0,.72-.55,6.74,6.74,0,0,1,.94-.49c.22-.38.43-.76.64-1.15l-.74.28s-.07-.46-.24-.36a1.68,1.68,0,0,0-.3,1c0,.29-.79.34-.79.34l.38-.38-.91.11.34-.42s-.35.41-.47.36,0-.61,0-.61a2.13,2.13,0,0,1-.65.44,2.32,2.32,0,0,0-.57.28l-.39.88.07-.06c.18-.15.58-.15.38.06s-.31.39-.42.49S168.88,320.54,169.12,320.37Z"/>
        <path class="cls-1" d="M168.82,321.73a3.78,3.78,0,0,0-.53-.51c-.09,0-.27.18-.45.34-.22.58-.44,1.15-.64,1.72a9.78,9.78,0,0,1,1.39-1.1Z"/>
        <path class="cls-1" d="M180.91,338.93a.07.07,0,0,0,0,0Z"/>
        <path class="cls-1" d="M260,327.87a1.11,1.11,0,0,1-.45.25c.18.25.35.52.53.77C260,328.55,260,328.21,260,327.87Z"/>
        <path class="cls-1" d="M178,358.06c-.08-.07-.28-.33-.17-.34s.11,0,.27.1a1.41,1.41,0,0,0,.41.23c.17.07.35.09.28-.08a1,1,0,0,1-.1-.58,4,4,0,0,0-.16-.77,2.19,2.19,0,0,0,0-.39,1.6,1.6,0,0,0-.26-.38,2.18,2.18,0,0,0-.22-.24s-.22-.14-.73.07-.58.43-.76.37h-.08c-.12,0-.29.18-.28.08a.65.65,0,0,1,0-.11c.11-.34.12-.1.14-.5s-.07-.27,0-.69c0-.2.05-.28.05-.35a1,1,0,0,0-.1-.32,1,1,0,0,1-.07-.7c.05-.21.19-.65-.29-.48s-1.25.43-1.09.84.19.64.05.86-.16.36-.09.44.09.28-.18.13-.35.3-.73.44-.29-.27-.56-.18-.19.12-.43-.15-.54-.3-.73-.78-.34-1.28-.47-1.72,0-.51,0-.69a.85.85,0,0,1,0-.17,4.6,4.6,0,0,0-.12-.55.56.56,0,0,1,.2-.74c.35-.29.27-.09.37-.45s-.33-.28.3-.5l.77-.27c.23-.08.3-.28.5-.17s.36.25.5,0a.48.48,0,0,0,0-.48s-.32-.26.44-.34.57-.59.85-.31.43.43.54.2,0-.52.26-.29.61.21.61.4a1.23,1.23,0,0,0,.17.51,3.08,3.08,0,0,0,.54.91c.28.27.55.68.62.13s.16-.28-.11-1a13.37,13.37,0,0,0-.57-1.31,1.24,1.24,0,0,1-.08-1.4,7.49,7.49,0,0,1,.73-1.26c.27-.3.3-.16.41-.49s0-.46.15-.51,0-.18.13-.22a.76.76,0,0,0,.21-.23c0-.1-.06-.2-.1-.3l-.26.11c.09-.11.18-.23.28-.33l-.15-.27s-.32.12-.25.06.31-.25.25-.41l-.22-.62s-.24-1,.06-.24.27,1.11.41.53,0-.8,0-.8h.24a2.89,2.89,0,0,0,.21-1.08c-.07-.3-.12-.22.29-.5s.55-.59.71-.67l.41-.2c-.07,0-.18,0-.11-.59.09-.77.19-1,.46-1.24s.28-.56.52-.7l.24-.12c.15-.08.28-.16.24-.27a.35.35,0,0,1,.07-.28,1.13,1.13,0,0,1,.21-.24c.19-.17.32-.43.47-.54a3.12,3.12,0,0,0-.57,1c-.12.52.22,1,.41.51s.14-.51.43-.67.46-.52.66-.63.57-.64.66-.7a2.58,2.58,0,0,0,.44-.74c.18-.39,0-.48-.2-.32s0-.54-.11-.48a1,1,0,0,0-.29.66c0,.2-.19.34-.25.4a1.1,1.1,0,0,1-.46.3c-.21.06-.57.18-.61,0s-.12-.52,0-.71a1.44,1.44,0,0,0,.21-.45c.08-.27.38-1-.06-.75s-.61.14-1,.54-.56.87-.74,1a3.48,3.48,0,0,0-.43.85c-.1.23-.18.43-.24.54a.23.23,0,0,1-.06.07c-.12.11-.28,0-.28,0a2.73,2.73,0,0,1,.29-.5c.2-.27.21-.56.43-.84s.2-.34.33-.5l.32-.45a1.84,1.84,0,0,0,.26-.34c.06-.13-.05-.39.12-.49s.81-.55,1.08-.68.72-.55.87-.61a6.89,6.89,0,0,0,.64-.4c.11-.07.18-.15.4-.6a2,2,0,0,1,.8-1c.64-.5.8-.62.78-1.05s0-.67-.12-.77-.35.27-.44-.08-.28-.09-.49.23a3.1,3.1,0,0,1-.59.82c-.21.14-.58.07-.21-.28a7.87,7.87,0,0,0,.68-.74c.24-.27.16-.26.38-.48s.21-.28-.17-.16-.27.21-.63.18-.71,0-.71-.31.13,0,.14-.64a10.23,10.23,0,0,0-.82-2.38,6.16,6.16,0,0,1-.55,1.51,5.06,5.06,0,0,0-.66,1.14c0,.24-.15.46-.29.14s-.23-.24-.32-.21-.73.39-.14-.55.28-.56.21-.83-.27-.24-.48-.1-.33,0-.43-.3-.37-.29-.72,0-.55.64-.74.61-.82-.06-.73.67-.16.84-.08,1.12.16.51-.06.64-.73.94-.3,1.22.47.29.48.67a3.2,3.2,0,0,1-1.36,2.55,5.54,5.54,0,0,0,.17,1.19c.12.32.09.37-.09.66s-.07.48-.3.6-.26.31-.42,0-.19,0-.25-.41-.24-.2,0-.71,0-.2.08-.66.11-.68,0-.62l-1.07.44s-.24-.35-.57-.18-.8-.45-1.23-.25a4.38,4.38,0,0,0-.75.44,2.36,2.36,0,0,0,.06-1c-.12-.35-.6-.07-.6-.07s.53-3,1.75-3.63c.19-.1.55-.87.1-.67s.25-.36.49-.51.12-.18.45-.36-.12.29.41-.38.65-.77.6-.94-.41.23-.67.15l-.38-.13s.3-.16.48-.23a2,2,0,0,0,.51-.25c.12-.11.14,0,.14-.35s0-.41.22-.56.25-.3.54-.32,0-.1.39-.23,0,0,.48-.53.79-.61.65-.93-.66.1-.29-.5.6-.55.48-.77a.64.64,0,0,0-.67-.18c-.12.08-.3-.06-.53.32s-.13.84-.23,1.06-.28.17-.42.57-.28.42-.43.66,0,.23-.15.25-.42-.19-.13-.4.61-.41.28-.7-.6-.4-.74,0-.25.71-.32.59-.24-.94-.31-.63-.44.55-.61.87-.5.52-.6.77-.23.56-.32.76,0,.49-.07.54-.15.46-.27.06-.23-.46-.45-.34l-.65.33a1.89,1.89,0,0,0-.44.28l-.6.49s-.29-.47-.73-.28-.7.25-.82.49a1.33,1.33,0,0,0-.25.71c0,.24.1.55,0,.51s-.12-.21-.33-.42-.13-.28-.49-.13a15.21,15.21,0,0,0-1.4.81s-.23-.11.19-.38.43-.9-.26-.63-.77.55-1,.38l0,0a56.32,56.32,0,0,0-1.8,24.64l.05.37c.22.13.25.37.4.65s.31.79.51.91.42,0,.51.18a1.26,1.26,0,0,0,.64.48c.17.08,0,.06.18.33s.29,0,.63.36,1.11.51,1.31,1,.24.53.21.79-.19.47.08.6a4.57,4.57,0,0,0,1.28.55c.21-.05.6-.1.6-.1s.88.3,1.22.38.23.11.58.08.86.17.88-.06.16-.5.38-.51.82.49,1,.55l.16.06a3.89,3.89,0,0,0,.61.15,1.08,1.08,0,0,0,.48,0c.36-.14.27,0,.61-.09a.21.21,0,0,1,.19,0,.12.12,0,0,1,.06.06c.07.09.07.28.23.35l.7.29,0,0S178.06,358.11,178,358.06Z"/>
        <path class="cls-1" d="M259.94,327.58c-1-12.63-5.4-25.1-13.74-34.75a2,2,0,0,0-.32.55l-.85,0c-.06.13-.13.26-.19.4-.22.05-.43.12-.65.18a1.25,1.25,0,0,0,.22-.65c0-.36-.44-.1-.55,0s-.39.38-.39.38a1.73,1.73,0,0,0-.58.35,5.28,5.28,0,0,0-.54.89c0,.18-.07.36-.1.55,0,0-.75.25-1,.05s-.47-.56.06-.66-.15-.69-.61-.61-.57.11-.42.8.63.89.66,1.23-.18.15-.18.15-.22-.3-.49-.26a2.22,2.22,0,0,0-1,1c-.09.3.49.66.31.8a1.19,1.19,0,0,1-1.17-.13c-.35-.29-.83.32-.18.6s.48.83.18.54-.56-.47-.72-.45a3.22,3.22,0,0,1-.46,0,.65.65,0,0,0-.18-.59.84.84,0,0,1-.16-.73,1.67,1.67,0,0,1-.78-.33c-.35-.28.1-.19.25-.22a6.66,6.66,0,0,0,1.56.25c.65-.05,1.55-.45,1.5-1a1,1,0,0,0-.89-1c-.46,0-.74.07-1.09-.34a1.56,1.56,0,0,0-1.5-.33c-.54.1-.68,0-.85-.14s-.88.34-.88.34-.37-.47-.21-.5l.15,0a.85.85,0,0,1-.37-.17,1.41,1.41,0,0,0-.63-.18,2.72,2.72,0,0,0,0,.3c0-.2-.08-.43-.12-.64l-.35.43c-.09.2-.19.39-.29.6l0-.6c-.12.2-.25.4-.37.61,0-.27,0-.54.07-.79a.6.6,0,0,0-.55.15.94.94,0,0,0-.43.74c0,.17-.24,0-.36.06a4.55,4.55,0,0,0-.45.2s0,.13-.34.19-.55-.21-.51.09-.35.47-.47.55-.11.73-.11.73-.57.27-.71.18-.25.21-.24.62a.56.56,0,0,1-.34.56,3.86,3.86,0,0,0-.41.65c0,.22-.06.42-.08.64,0,0-.05.63-.21.71s-.4.73-.6.76-.25.71-.4.73l-.37.07-.73.11a2.57,2.57,0,0,1-.11.84,2.93,2.93,0,0,1-.45.34c-.27.21-.48.25-.46.4a1.53,1.53,0,0,0,.22.45c.26,0,.52,0,.78-.06l-1,.27c.06.28.13.57.18.87l.62-.47c-.15.34-.28.66-.43,1,.13.22.26.45.41.68,0,0,0,.42.76.15s.83-.71,1-.79.33-1,.42-.61.09.41.37.38l.12,0c.38-.07-.49.4,0,.6s.36.21.63.91a2.13,2.13,0,0,1,.21,1c0,.2.21.49.45.45a.37.37,0,0,0,.36-.37c0-.21.34-.26.62-.31s.54-.19.43-.85a6.27,6.27,0,0,1-.06-1.32s1-.64.82-1.2-.83-.25-1.07-1.36.52-1.36.94-1.87a9.43,9.43,0,0,0,.69-1s-.45-.1-.24-.36.22-.55.41-.58a7.23,7.23,0,0,0,.69-.29h.19c.27,0,.72,0,.63.22s0,.51-.14.53a10.53,10.53,0,0,0-.93,1.24,1,1,0,0,0-.4,1.06c.2.63.4,1.36.4,1.36a.28.28,0,0,0,.27.23c.23,0,.43.32.62.29l.7-.11c.12,0,.5-.2.61-.22s.28,0,.39-.05a2,2,0,0,0,.27-.44h.15l.28-.06.43.1-.42.45a2.56,2.56,0,0,0-.2.26l-1.43.28s-1,.8-.31,1.17a1.28,1.28,0,0,1,.31.24c.35.35.34.8.09.88a.34.34,0,0,1-.42-.2s-.43-.73-.91-.39-.44.39-.11.87,0,.36.18.55-.11.45.11.61,0,.19-.17.3-.36.27-.16.33c.37.09-.81.33-.81.33l-.35-.36s-.57.29-.87.49-.91.56-.91.56l-.15,0-.31-.06s-.45-.34-.55-.17a1,1,0,0,1-.57.34.79.79,0,0,1-.56-.17c-.13-.13-.43.11-.41-.41s.08-.42.37-.73.38-.32.24-.51-.48.13-.4-.26.27-.77.08-.74a.73.73,0,0,0-.54.34,4.87,4.87,0,0,1-.28.41s-.49.13-.47.34a6.16,6.16,0,0,0,.09.72,4.14,4.14,0,0,0,.53.75s-.05.68-.21.71.06,0-.66.46l-.12.06c-.86.48-.95,0-1.17.74s0,.76-.58,1l-.07,0c-.51.2-.33.34-.43.5a2.57,2.57,0,0,1-.44.29c0-.06,0-.12-.11-.19-.4-.21-.62.28-.41-.21s.36-.36.44-.75.21-.45-.05-.53-.54.42-.78.23.09-.13-.09-.6,0-.58-.34-.84-.49,0-.49,0,.21-.81-.38-1-.83.09-.83.09,0-.08.53-.47a1.17,1.17,0,0,0,.48-.93,4,4,0,0,0-.87-.07c-.25,0-.44.41-.48.31a.72.72,0,0,1,.22-.63,3.23,3.23,0,0,0,.41-.45l-1.06,0a4.11,4.11,0,0,1-.43.86,1,1,0,0,0-.28.82c0,.27.55.27.55.27s-.39.5-.22.47.76-.19.58-.08a3.34,3.34,0,0,0-.46.33l.39-.06s-.5.58-.38.57a7.55,7.55,0,0,0,.73-.27s.27-.23.31.19a1.51,1.51,0,0,0,.29.73s.49,0-.05.47-.52.42-.67.44.42.45.25.58-.68.07-.7.22.26.34.45.32.66.36.93-.28c0,0-.15.62-.57.64a.9.9,0,0,0-.83,1,1.79,1.79,0,0,1,.83-.31c.54-.08.47-.18.8-.23s.34-.08.69-.14a7.44,7.44,0,0,0,1-.21,2.81,2.81,0,0,0,.51-.2.17.17,0,0,0-.06.15c0,.24,0,.65-.19.68s-.26.44-.26.44-.49.32-.81,0-.37-.19-.25.18.26.47,0,.52a4.11,4.11,0,0,0-.6.14,3.26,3.26,0,0,0-.87,0c-.21.08-.16.63-.15.83s.28-.34.8.08a5.11,5.11,0,0,1,1,.9,3.39,3.39,0,0,1,.2.87c0,.38.25,1.38,0,1.42a.89.89,0,0,0-.3.12,2.9,2.9,0,0,0-.36.23l-3.21.05s-1.37.5-.82,1.2c0,0,0,.1.06.25s.09.57.13,1a2,2,0,0,1-.46,1.34c-.11.26-.26.78,0,.74s.36,1.16.36,1.16-.08.16.47.07.4,0,.49,0l.05-.06a.45.45,0,0,1,.79.17c.17.5.23.58.48.49s0-.54.5-.61.53-.24,1-.32l.78-.12s.26-.62.48-.61.2-.9.5-.95-.28-.86.15-1.37.48-1,.83-1a1.82,1.82,0,0,0,.65-.3c.06-.35.12-.7.17-1.05,0,0-.18-.65.37-.74s1.13.32,1.49.17.45-.5.6-.74a.5.5,0,0,0,0-.13c0-.22,0-.47.57-.4s1,.06,1,.63,0,.39.47.74a4,4,0,0,0,1.21.77c.37.08.71-.2,1.18.58s1,.93.61,1.07.11.41-.52.51-.62.2-1,.27-.54.32-.41.49a8.32,8.32,0,0,0,1.46.55l.21-.88a.92.92,0,0,0,.57-.46c.13-.35.22-.65.46-.69s-.29-.62-.46-.73.14-.73.58-.19.87,0,.07-.53a2.41,2.41,0,0,0-1.19-.47c-.12-.08-.2-.4-.2-.4l-.61-.15c-.08-.16-.16-.32-.25-.48,0,0-.05-.24-.48-.51a4.57,4.57,0,0,1-.66-.47s-.28-.84.08-.89.28-.24.39-.2.11.07.22.19a3.16,3.16,0,0,0,.71.67c.12.08.33.54.66.63s.43.32.59.34a2.3,2.3,0,0,0,.47,0l.06,0c.26.16.53.4.78.59a5.24,5.24,0,0,0,.14,1.07c.08.13.31.89.53.81a.26.26,0,0,1,.11,0c.12,0,.15.13.23.34a5.09,5.09,0,0,1,.18.77l.31.45a1.63,1.63,0,0,0,.44.21,5.53,5.53,0,0,0,.62,0c0-.16-.05-.3-.07-.46l.18-.08-.34-.4.51.19.21-.31-.63-.69-.36-.59s-.11-.54.1-.26.25.15.42-.16-.2-.15.16-.31.5-.35.59-.25l.05.05a1.1,1.1,0,0,0,.6.26s0,0,0,0h0s0,.14,0,.49a3,3,0,0,0,.23,1.08c.09.21.28.6.46.57a.34.34,0,0,1,.43.2l.26.59.71,0s.23.14.33,0,.23-.41.23-.41a.45.45,0,0,1,.63,0c.35.3.32.36.75.23s.21-.62.47-.58a2.53,2.53,0,0,0,.8-.05c.1,0,.16,0,.19,0a.81.81,0,0,1,0,.24c0,.27.11,1.25.09,1.47a1.15,1.15,0,0,1-.14.61l0,.05c-.17.22-.38.34-.36.69s.07.57.09.88a11.51,11.51,0,0,0,.19,1.62,3.3,3.3,0,0,0,.29.93c.34.58.19.22.76,1s.36,1.19.72,1.54.63.05.87,1c0,0-.1,1.34.36,1.67s.62.13.91.87.63.77.86,1a1.07,1.07,0,0,1,.19.29,1.9,1.9,0,0,1,0,.46,7.17,7.17,0,0,0,0,1.22c.08.52.08.74.25,1s.14.43.63.11.1-.49.66-.61a4.23,4.23,0,0,0,1.25-.6s0-.59.45-.69.46-.39.78-.67.56-.32.58-.62.19-.67.29-.69h0l.36-.07a2.49,2.49,0,0,0,.64-.18c.16-.07-.32-.56.09-.65s.55,0,.58-.41a1,1,0,0,1,.45-.64s0-.33,0-.46-.2-.58.09-.64.13,0,.51-.53a1.21,1.21,0,0,0,.25-1.18.85.85,0,0,0-.23-.29c-.13-.14-.3-.48-.39-.46s-.39.12-.56,0a1.43,1.43,0,0,1-.49-.49.89.89,0,0,1-.06-.21,7.14,7.14,0,0,1-.09-.73,10.35,10.35,0,0,1-.92,1.5c-.26.22-.92.26-1.08.4a.11.11,0,0,1-.1,0,2.34,2.34,0,0,1-.88-1c-.25-.5.05-.54-.33-.92a5.63,5.63,0,0,1-.76-1,.94.94,0,0,1-.12-.36c0-.29.55-1.5.84-.91s.61,1.31,1.29,1.47c0,0,.31.63.81.66s1.06-.86,1.26-.64.2,1,.81,1,1.11.19,1.43.12a2,2,0,0,0,.35-.11,6.69,6.69,0,0,1,1.16-.29c.93-.15,1-.59,1.18-.16s.1.82.67.69a.26.26,0,0,1,.2,0C259.31,327.29,259.23,327.85,259.94,327.58Zm-25.8-17.36.06.09a0,0,0,0,0,0,0Zm1.53-4.38s0,0,0,0l0,0Zm15.92,26.39,0,0h0Zm5.77-14.82.18-.05h0Z"/>
        <path class="cls-1" d="M227.16,319.55c.3,0,.34-.34.31-.66s-.53-.42-.57-.17C226.9,318.72,226.85,319.6,227.16,319.55Z"/>
        <path class="cls-1" d="M166.41,354.65c-.3-.08-.44-.61-.67-1s-.55-.4-.76-.75c-.08-.14-.16-.26-.23-.36.08.38.15.77.23,1.14a.36.36,0,0,1,.17.12,1.15,1.15,0,0,1,.24.39c.06.14.17.49.17.49l.88.4s.57.68.53.26A.66.66,0,0,0,166.41,354.65Z"/>
        <path class="cls-1" d="M176.91,315.77c-.19.18.14.85.24.79s.41-.27.73-.47l1-.64c.34-.22.64-.36.88-.53s.41-.47.92-.95a1.35,1.35,0,0,0,.41-1.07l-1,.65a23.5,23.5,0,0,1-2,1.55c-1,.69.19-.69.19-.7s1.12-.89,1.23-1l.78-.68,1.29-.86s.46-.33.32-.43a.4.4,0,0,1,0-.68,4.58,4.58,0,0,0,.69-.65,2.57,2.57,0,0,0,.08-.4s1.09-1,1.19-1.17-.44.34-.61.48,0-.89.18-1.17a16.29,16.29,0,0,1,1.76-1.37,6.79,6.79,0,0,0,.83-.74c.24-.26.42-1.19.71-1.42s.82-1,1.1-1.27,1-1.25,1-1.25l.69-.8a1,1,0,0,0-1,.15,11.71,11.71,0,0,0-1.05.9l-1,.86L185,304c-.59.47-.48.39-1.41,1.11a8.52,8.52,0,0,0-1.73,1.76,5.89,5.89,0,0,1-1.72,1.41,1.45,1.45,0,0,0-.49.85c0,.17.08.36.13.53s.1.25.15.37-.29.2-.43.1-.49.06-.49.06a3.19,3.19,0,0,1-.4.43l-.86.58c-.21.15-.37,1-.37,1,.06.21.12.41.19.61,0,0,.43.25.56.15a4.56,4.56,0,0,0,.69-.54,8.17,8.17,0,0,1,.76-.65c.1-.08.49,0,.49,0s0,.32-.08.39a.52.52,0,0,1-.32,0l-.49.36c-.14.09-.28.58-.49.72l-.56.38c-.14.1-.22.41-.47.57a2.37,2.37,0,0,1-1.07.25c-.29,0-.34.86-.34.86l.69-.44S177.1,315.58,176.91,315.77Z"/>
        <path class="cls-1" d="M226.93,320.56c0,.38.07.75.1,1.13l.3-.05a2.81,2.81,0,0,0,.1-.31l.27-.11a6.92,6.92,0,0,0,0-1.22s-.17-.19-.24-.29-.28.09-.28.09a1.37,1.37,0,0,1-.23.17l-.22.22Z"/>
        <path class="cls-1" d="M168,325.33c.05.13.12.27.18.4s.25-.14.9-.42a3,3,0,0,0,1.24-1.14c.11-.22.19.09.78.08s.42-.2,1-.47-.08-.4,0-.45a2.18,2.18,0,0,0,.81-.64c.2-.33-.93.19-1-.51a6.12,6.12,0,0,1,.38-1.95c.14-.07.14-.3.14-.3l-.73.38c.06.24.13.48.19.72a.61.61,0,0,0-.49-.22c-.3,0-.65.74-.47,1.28l0,.05c-.07-.16-.2-.36-.33-.18s0-.44-.1-.18-.43.31-.76.24-.3.14-.74.29a7.63,7.63,0,0,0-.95.47c-.43.18-.52.27-.59.69s.56.39.23.52-.54.38-.4.38,1.67-.31,1.67-.31l-.91.38c-.5.2-1.06.43-.95.92S168,325.33,168,325.33Z"/>
        <path class="cls-1" d="M216.29,312.7c.41.1.4-.09.77-.33a2.84,2.84,0,0,1,.89-.44c.55-.19.1-1.12.21-1.3,0,0,.28.16-.08-.14s-.55-.35.23-.46,0-.42-.22-.55-.29,0-.81.08-.26.73-.26.73-.19.18-.57,0-.47,0-.48.65.14.36.43.32,0,.27-.27.39a.81.81,0,0,0-.37.74C215.78,312.62,215.88,312.61,216.29,312.7Z"/>
        <path class="cls-1" d="M225.58,289.14c.36-.08.48-.62.8-.69s0,.52,0,.51c-.88.47-.92.38-.21.89s.53-.11,1,.08.21,0,.47-.89.13-.65.62-.84.46.47.69.56a2.11,2.11,0,0,0,1,.09c.48-.1.56-.41.36-.37a.94.94,0,0,1-1-.35,2.74,2.74,0,0,0-1.56-.53,1.27,1.27,0,0,1,.49,0,3.74,3.74,0,0,0,1.23-.08c.42-.08.5-.16,1-.56s.22-.72.22-.72l-1.36.3-1.4.3c-.56.12-.71.4-1.54.58l-1.37.29c-.41.09-.39.52-.32,1.06S225.23,289.21,225.58,289.14Z"/>
      </g>
    </g>
  </g>
</svg>
