<svg id="Logo" xmlns="http://www.w3.org/2000/svg" viewBox="0 0 2339 439">
  <defs>
    <style>
      .cls-1 {
        fill: #fff;
      }

      .cls-2 {
        fill: none;
        stroke: #fff;
        stroke-miterlimit: 10;
        stroke-width: 8px;
      }
    </style>
  </defs>
  <title>Plan de travail 1</title>
  <g>
    <g>
      <path class="cls-1" d="M161.87,332.7a142.25,142.25,0,0,1-18.32-1.79c-4.91-.86-8.54-3.22-10.1-6.84-8.18-19-4.69-46.17-4.79-67.46q-21.1-3.93-42.12-8.26c-1.83,23-3.7,58.33-26.87,71.29-8.91,4.81-15.7,7.35-20.38,7.11s-7.91-2.53-9.41-6.77c-1.66-4.7-2.85-12.32-3.26-22.61-.13-3.31-.38-6.83-.68-10.42-1.71-20.24-1.37-41.12-1.37-61.56,0-30.95.6-62.09,1.88-93,.36-8.6,2-14.38,4.88-17.37s10.81-4.77,23.71-5.26l7.71-.37a54.31,54.31,0,0,1,13.86,1c3.65.86,6.27,4,7.54,9.34C89.7,143,87.49,170,87.57,194.12V224.9q21,4.28,42.11,8.15c2.1-34.91,3.65-92,36.47-114.72a120.25,120.25,0,0,1,13.69-8.28,33.27,33.27,0,0,1,13.87-3.79q9.07-.29,11.81,4.95c4.84,11.09,5,24,5.48,35.63.19,4.73.45,9.82.86,14.91,2.31,29,2.06,58.85,2,88.15,0,22.25,5.07,58-5.48,79.37-1.48,1.84-4.89,3.08-10.1,3.6C186.35,334.09,173.92,333.21,161.87,332.7Z"/>
      <path class="cls-1" d="M354.29,341.15a227.85,227.85,0,0,1-38.69-4.58,111.5,111.5,0,0,1-28.76-10.17,69.62,69.62,0,0,1-19.6-15.14A58.23,58.23,0,0,1,256,292.36a59.82,59.82,0,0,1-3.59-20.58c.31-28,4.21-57.14,14.12-83.35,8.77-23.18,20.69-46.31,39.12-62.85,16.18-14.53,36.2-25.46,58.38-25.44,13.31,0,24,2.28,37.15,6.47q10.1,3.89,14.63,9.93t4.54,11.92a13.17,13.17,0,0,1-4.45,10c-3,2.76-7,4.15-12,4.2a31.91,31.91,0,0,1-7.79-1,38.15,38.15,0,0,0-9.33-1A51.07,51.07,0,0,0,367.56,145c-6.68,2.8-12.78,7.59-18.32,14-5.92,6.88-10.37,17.38-12.07,26.23a413.36,413.36,0,0,0-9.07,71.9q23.52,1.56,47.07,2.62,10.27.46,15.75,6c3.66,3.68,5.6,8.61,5.65,11s-1.85,4.38-5.56,6.06-9.5,2.31-17.38,1.9q-22.44-1.25-44.85-2.82c.71,8.8,4,19.39,9.07,26.71,7.38,10.64,19.39,17.88,32.36,18.29a69.6,69.6,0,0,0,24.82-3.4,55.77,55.77,0,0,1,20.55-3.31,25.3,25.3,0,0,1,8.47,1.61c2.23.93,3.34,2.06,3.34,3.37,0,2.44-3,4.92-8.9,7.38a110.79,110.79,0,0,1-28.34,7.34A219,219,0,0,1,354.29,341.15Z"/>
      <path class="cls-1" d="M524.11,347.39c-17.69-.85-38.7-2.47-53.92-13-10.68-7.37-17.39-19.25-20-31.76-3.91-18.54-4.2-38-4.28-57-.19-42.74-3.93-90.32,4.79-132.2,1.7-8.17,5.22-13.3,10.19-15a66.05,66.05,0,0,1,18.74-2.93l10.27-.36c12.05-.21,27.52,0,36.3,8.15,7.57,7.07,9.29,20.13,9.41,30.57.08,6.07.17,13,.17,20.52,0,19.52-.65,39.12-1.54,58.57-1.16,25.29-3,51.19-2.74,76.26.16,12.47-.91,28.91,8.22,39.07A20.74,20.74,0,0,0,550,333.4a74.21,74.21,0,0,0,13.53,1.48c7.53.18,13.27,1,17.2,2.5s5.91,3,5.91,4.63c0,3.52-8.51,5.35-25.51,5.78C548.77,348.09,536.28,348,524.11,347.39Z"/>
      <path class="cls-1" d="M673.57,352.45c-17.73-.83-39-2.61-53.93-13.77-11.91-8.89-16.9-21.56-20-35.14-4.41-19.13-4.19-40.21-4.28-60.27-.2-43.65-3.72-91.62,4.79-134.38,1.69-8.49,5.23-13.86,10.19-15.62s11.21-2.78,18.74-3l10.28-.36c12.07-.22,27.56,0,36.29,8.32,7.58,7.2,9.29,20.36,9.41,30.9.08,6.11.17,13,.18,20.58,0,19.28-.64,38.64-1.54,57.83-1.2,25.35-2.95,51.18-2.74,76.41.11,13.87-1.63,34.62,8.21,46.25a19.39,19.39,0,0,0,10.27,5.78,63.64,63.64,0,0,0,13.53,1.48q11.29.1,17.2,2.65c3.94,1.69,5.91,3.53,5.91,5.43,0,4.19-8.51,6.46-25.51,7.11C698.23,353.06,685.71,353,673.57,352.45Z"/>
      <path class="cls-1" d="M828.84,356.21c-9.43-.31-18.93-2-28.25-3.53C786.48,350.39,773.83,341.8,764,332c-16.5-16.44-19.93-40.22-22.26-62.44-.34-3.94-.52-8-.51-12.39,0-31.93,4.9-64.91,16.52-94.54C767.4,137.86,780,112.71,801.79,96c10.22-6.55,20.42-13,33-13.14,10.63-.13,21.38,3.72,31,7.82,18.89,8,30.24,31,38.86,47.92,14.56,28.61,18.43,62.24,18.49,93.84,0,16.23-.74,33.06-4.63,49.11a113.81,113.81,0,0,1-15.06,35.75C893.17,333,878,346.54,859.65,351.92A92.33,92.33,0,0,1,828.84,356.21Zm21.57-24.54c11.85-.82,19.71-14.84,23.45-24.77,7.1-18.82,8.44-41,8.56-61,.18-30.57-.25-63.71-7.87-93.68-2.08-8.17-8.6-29-17.12-28.6-13,.62-20,32.94-22.94,45.19-7,28.77-8.55,59.75-8.39,89.35.1,19.19-1.2,42.71,7.7,60.09C838.61,327.62,844.62,332.07,850.41,331.67Z"/>
      <path class="cls-1" d="M1277.71,364.8c-9.38-.1-18.79-6.08-27-10.55-38.4-24-47.39-93.36-55.81-133.08-5.47,31.41-12.25,62.38-20.2,93.25-2.67,10.47-5.51,21.11-9.93,31-5.25,11.53-11.5,17.16-18.66,17-9.89-.22-19.09-4.8-27.9-8.8-23.25-12.09-34.6-42.4-42.72-65.55-16.36-46.67-23.64-96.41-29.87-145.26-1.68-13.1-3.49-26.52-3.6-39.64a56.43,56.43,0,0,1,.35-6.92c.79-6.72,3.88-11.35,9.24-13.79s13.86-4.84,25.34-6.91A172.14,172.14,0,0,1,1100,72.81c7.07-.29,12.38.33,15.92,1.81,6.5,2.78,10.88,8.92,13.18,18.5,5.12,21.28,9.48,42.93,13.61,64.41,5.78,30,10.76,60.24,15.15,90.56,9.6-49.16,15.87-98.66,17-148.66.25-11.7,3.54-20,9.93-25s14.1-7.48,23.11-7.82a97.87,97.87,0,0,1,36.64,5.46c9.34,3.37,14.77,7.07,16.26,11.32,6.37,18.1,10.48,37,14.38,55.67,6.37,30.48,11,61.48,15.07,92.47,9.48-52.68,17.27-106.38,19-159.61.09-2.85,1.68-5.2,4.71-7s7.21-2.75,12.58-2.95q7.53-.27,11.9,2.05c2.91,1.56,4.39,3.62,4.36,6.26-.8,77.59-17.32,157.5-34.24,233.76-3.2,13.27-6.75,26.69-11.13,39.35C1294.43,352,1288.13,364.9,1277.71,364.8Z"/>
      <path class="cls-1" d="M1898.63,399.71c-10.89-.67-14.26-15.85-15.24-24.5-1.39-12.29-3.33-25-4.45-37.58-4.45-47.78-11.14-128.23-67.28-145.39h-.34c-3.06,49.08-1.85,123.13-34.75,164-7.08,7.93-16.62,21.52-27.57,21.89a9.87,9.87,0,0,1-9.58-5.92c-8.17-20.56-7.22-45.7-7.71-67.2-.17-7.92-.3-16.19-.68-24.46-2-43.36-2.23-87.29-2.23-130.85,0-29.59-3.47-62.53,2.4-91.1a13.22,13.22,0,0,1,3.17-6.58c1.42-1.51,4.79-2.63,10-3.34,11.7-1.62,23.77-1.83,35.61-2.27,4.89-.19,9.5-.26,13.78-.26a38.07,38.07,0,0,1,10.53,1.19q8-.39,15.58-.62,5.13-.15,13.52-.27a161.78,161.78,0,0,1,18.83.94c15.06,1.61,32.08,4.87,44.34,14.35,10.93,8.43,18.14,22.07,17.29,35.24-.86,13.43-4.85,23.36-11.81,35.25-9.24,15.79-24.55,30.8-39.2,42.72,37,44.77,45.35,107.09,50,163,.75,10.06,1.2,20.24,1.19,30.32s-1.51,17.84-4.53,23.37S1902.74,400,1898.63,399.71Zm-74.13-251c9.44-7.33,19.45-13.83,25.51-24.42a55.47,55.47,0,0,0,7.7-25.9c.27-9.6-5.41-22-13-28-9.21-7.31-21.25-11-32.87-12.61,2.38,16,2.18,32.37,2.23,48.4,0,13.23-.35,26.54-.69,39.81C1815,146,1818.68,146.84,1824.5,148.69Z"/>
      <path class="cls-1" d="M2028.05,389.87c-29.45-.92-45.35-31.73-53.93-55.47-12.95-35.85-17.24-75.81-20-114-2.31-31.72-4.32-64.06-4.27-96,0-23.35-4.58-55.95,4.79-76.9,1.55-3.47,5.22-5.64,10.18-6.42a156.08,156.08,0,0,1,18.75-1.55l10.27-.34c11.89-.07,25.45-1.3,36.29,3.29,5.83,2.47,9.12,8,9.42,15.84.13,3.33.18,7.21.17,11.63,0,12.64-.71,25.38-1.54,37.92-1.79,27.12-2.73,54.6-2.74,81.85,0,37.69-2.37,80.32,8.22,117.18,2.74,9.45,6.16,15.86,10.27,19.13a24.64,24.64,0,0,0,13.52,5.55q11.31,1,17.21,9.48a32,32,0,0,1,5.91,18.33c.13,14.81-12,24.9-25.51,27.78C2053.18,389.68,2040.17,390.25,2028.05,389.87Z"/>
      <path class="cls-1" d="M2189,408.08c-19.71-1.41-36.44-6.77-54.09-16.52a17.86,17.86,0,0,1-9.59,2.3q-7-.35-10.19-9.22c-2.11-5.92-3.63-13.83-4.36-23.48-1.38-18.14-2.07-36.61-2.91-54.83-2.34-50.57-1.76-101.67-1.72-152.36,0-32.83-5.72-76.73,5.65-108.69,1.6-3.58,5-6.13,10.28-7.74s13.63-2.63,25.16-3q13.35-.4,21.91,0c5.71.25,9.7,1.19,12,2.85,10.94-2.41,22.05-4.87,33-4.82,14.77.06,29.22,2,42.2,10.29s23.88,20.86,31.15,34.59c9.3,17.54,15.11,36.29,19.35,55.46,4.91,22.23,6.38,45.52,6.59,68.3.17,18.64-.78,37.73-2.4,56.17a337.91,337.91,0,0,1-9.5,55.21,175.55,175.55,0,0,1-20.88,47.94c-8.88,14.27-21.86,26.37-36.13,35C2228.25,405.31,2207.65,409.42,2189,408.08Zm-6-56.51c33.18,3.07,47.16-30.61,53.93-57.09,7.93-31.05,10.05-64.07,10.27-96.3.07-10.9-.12-22.06-.52-32.88a304.64,304.64,0,0,0-3.25-36.57c-2.8-17.55-8.27-38-22.08-51.1-8.63-8.17-20.35-12.22-32.19-12.56,1.94,27.1,2.35,54.32,2.4,81.43.13,66.37-1,138.35-21.74,202.2A58.75,58.75,0,0,0,2183,351.57Z"/>
    </g>
    <g>
      <path id="globe" class="cls-2" d="M1528.3,356.8c-86.2-.9-150.5-108.62-151.16-185.79-.74-84.88,80.6-111.36,151.16-114.15,62.35-2.47,151.62,3.22,151.14,85.67C1679,223.27,1626.75,357.84,1528.3,356.8Z"/>
      <g id="continents">
        <path class="cls-1" d="M1651,146.15s-1,.63-1.48,1-1.34.37-2.81.46-1.18.35-2.32.42-.76.79-1.78,1-1.82.35-2.46.39-.63-.81-1-.79a.63.63,0,0,1-.61-.56.4.4,0,0,1,0-.18c0-.29,0-.79,0-1.34s-.45-.94-1-1.28-.53-.74-1.27-1.45a5.85,5.85,0,0,0-2.9-1.73c-1.08-.12-.11-.55-1.52-2.15s-.55-.64-.88-1.82a1.18,1.18,0,0,0-.48-.79,4.78,4.78,0,0,1-1.39-.78c-1.1-1-.89-.61-1.11-1a5,5,0,0,1-.13-1.73c0-.28-1.25-2.31-1.72-3.28s-1.21-.41-.89-.69,0-.32-.23-.67a4.35,4.35,0,0,1-.61-1.37,6.85,6.85,0,0,0-2.24-3.37c-1-.92-.7-.77-.72-1.46s-1.88-1.79-1.89-2.22-.62-1.19-.39-1,1,1.29,1.31,1.71.14.34,1.63,1.25.42-.28.5-1.23a4.72,4.72,0,0,0-.18-1.25c-.28-1.1-.88-2.43-1.12-2.43s-.56-.07-1.46,0-.69-.15-1.59-.14-.71-.5-2.17-.46-1.56.81-2.67,1.18-3.18-1-3.75-1-2.34,0-2.81.06a3.89,3.89,0,0,1-1-.31,1.53,1.53,0,0,0-.54-.09,10.11,10.11,0,0,1-2.27-.55,6.19,6.19,0,0,1-1.35-.84c-.74-.59-1.79,0-2.51,0s-1,.81-1.6,1.17.07,1.41.1,2-.48.19-1.07.56a3.57,3.57,0,0,1-2.78-.28c-.75-.42-.26-.35-.9-.78s-2.34-.12-2.83-.12-.72,0-.89-.86a1.34,1.34,0,0,0-1.06-1s-2-.16-2.87-.13-1.65-.14-2.28-.13a1.66,1.66,0,0,1-.92-.47,1.47,1.47,0,0,0-.87-.38,1.19,1.19,0,0,1-1-.51,1.17,1.17,0,0,1-.43-1c.09-.51.71-.8,1-1.24s-.33-1.13-.6-1.39.81-1.13.81-1.13-1.1.53-1.13.11-1.56-.58-1.56-.58l-1.65.28s-1.26.1-1.64.11-1.68.11-1.68.11l-2.21,0s-1.14.19-3.61.48a15.56,15.56,0,0,1-3,.21,11.67,11.67,0,0,0-1.32.2,10.73,10.73,0,0,0-2.11.48c-.51.27-.65.54-1.18.55a6.4,6.4,0,0,0-2.15.47c-1.06.36,0,0-.37.37a1.14,1.14,0,0,1-.77.4h-.45A4.83,4.83,0,0,1,1555,113a8.5,8.5,0,0,0-1.39,0l-1.79,0a4.61,4.61,0,0,1-1.39-.34,2.48,2.48,0,0,0-1.56-.62c-1,0-.82.4-.82.4s-.13.47-.25.84-.68.88-.66,1.32-1.11.56-1.37.94-1,.43-1.85.76-1.56.29-2.1,1-1.29,1.23-1.42,1.71-.7.72-.69,1.29a3.62,3.62,0,0,0,.32,1.22c0,.27-.09.53-.13.78,0,0-1.16.77-1.15,1.45s-2.18.75-2.18.75a11.44,11.44,0,0,0-2,1.15,6,6,0,0,1-2.08.84h0c-.41.15.29,1.28-2.08,2.37s-2.39,2.76-2.7,3.2a5.78,5.78,0,0,1-1.06,1.23,4,4,0,0,0-.91,1.65,17.74,17.74,0,0,0-2.16,2.31c-.61.91-.46.47-.61,1.23s.33.75.63,1.25.14.43.92.57,0,1.43,0,2.41.14.53.14,1.54-.3,1.37-.3,2.59v.87a1,1,0,0,1-.31.75c-.31.38-1.4,2.08-1.4,2.08a4,4,0,0,0-.31,1.29v1.39c0,.72,0,0-.32,1.11s0,0-.14.83,1.09,1.3,1.09,1.3l.08.07.55.57c.61.63,2,.13,2,.13-.34.74.53,1.09,1,1.23a1.44,1.44,0,0,0,.27.06,4.11,4.11,0,0,0,1.22,1.21c.6.28.47.54,1.36,1a3.22,3.22,0,0,1,1.16,1.34c.13.25.22.45.22.45s0,1.12,0,1.47,1.06.87,1.5,1.18a6,6,0,0,0,1.78.78,2.41,2.41,0,0,1,.6.28c.47.33.59.68,1,1s3.25,2,3.23,2a22.06,22.06,0,0,1,2.75,1.39c1.16.74,1.59.19,1.59.19a2.59,2.59,0,0,1,.37-.11l1.23-.33a9.5,9.5,0,0,1,1.86-1,9.17,9.17,0,0,1,2.56-.91c1.57-.19,2-.24,3.25-.37s.58.32,1.39.6a2.09,2.09,0,0,0,1.3,0,2.75,2.75,0,0,0,.36-.14c.45-.21.93-.41,1.38-.64a8.57,8.57,0,0,0,1.53-.64,4.9,4.9,0,0,1,1.93-.93c.68-.06.84-.71,1.65-.79a.83.83,0,0,0,.82-.8l.47-.13c.51-.14,1.43-.33,2-.48l.11,0a24.19,24.19,0,0,1,2.71-.25c1-.1.92.39,2.35,1.21s.24,1,.08,2.07.38.94,1.29.85,1.86-.67,2.63-.75a11.91,11.91,0,0,0,2.6-1s0,0,0,0q.4.57.84,1.11a6.44,6.44,0,0,1,1.48,1.83,2,2,0,0,1,0,2.22,4.73,4.73,0,0,0-.33.68c-.18.53-.43,1.34-.59,2a6,6,0,0,0-.13.94c0,.76-.95,1.49-1.27,3.44-.26,1.65,1.84,4.42,3.72,6.26.38.36.74.72,1.06,1a4.25,4.25,0,0,1,1.06,1.46,7.8,7.8,0,0,1,.52,2.14,25.33,25.33,0,0,0,.46,3.6c.63,2.12,1.86,2.28,1.13,2.36s-.4,3.41.31,3.9.76,3.91-.86,6.68c-1.37,2.35-3,7.91-3.71,11.4q-.18.88-.27,1.5c-.45,3,3.83,13.17,3.8,13.19a82.6,82.6,0,0,1,.51,9.94c-.18,2.55,1.49,5.53,2.08,7a4,4,0,0,1,.24.74,19.5,19.5,0,0,0,1.38,7.07c1.42,3.17-.92,5.89.41,10s2.66,2.52,4.72.49,3.09-.15,4-.21,3.21-2.09,4.64-2.16,1.23-3.5,4.15-5.16,3.44-2.88,4.18-6.59,2.46-4.89,4.2-6.8c1.51-1.64,1.59-2.42,1.09-4.63-.07-.34-.15-.68-.24-1.06-.72-3.06,4-5.1,4-5.1.8-.06,1.49-1.69,1.93-5s.34-5.5-.89-7.34.61-2.45,1.44-3.14a13.4,13.4,0,0,0,2.27-2.53c.72-1,1-2.12,1.51-2.76s2.43-1.56,3-2.23a15.17,15.17,0,0,0,2.61-3.22c.85-1.57,1-1.74.72-3.36s.09-1.67.24-4.9a16.94,16.94,0,0,1,.39-3.77s-.18-.7-.4-1.61a34.68,34.68,0,0,1-.77-3.69c-.24-1.91.11-2.8-.28-3.58a7.15,7.15,0,0,1-.63-3.46c0-1.84,1-.87,1.06-2.13,0,0,0-.06,0-.1,0-1.48.2-2,.86-2.57s-.15-2.37.74-2.69,1.56-1.73,1.84-2.18a1,1,0,0,0,.08-.16,21.44,21.44,0,0,0,1.46-1.76c.22-.39,1.69-2.54,2-3.31a14.91,14.91,0,0,1,2.3-2.53c.32-.39,1.4-.6,1.62-1.11a15.87,15.87,0,0,1,2.31-3.25,11.18,11.18,0,0,0,2-3.29,36.56,36.56,0,0,1,2-4.91c1.28-2.57,1.54-7.44,2.26-8.34S1651,146.15,1651,146.15ZM1540.76,126l.67,0,.43,0Z"/>
        <path class="cls-1" d="M1421.53,99.07a13.87,13.87,0,0,0,1.29-.57c.48-.27,1.65-1.71,1.93-1.89a24.45,24.45,0,0,0-3.27.47c-.45.44-1.64,1.7-2,2s-.21,1.45-.61,1.6-1.2,1.45-1.75,1.84a7.11,7.11,0,0,0-1.21,1.38l.68.65,1.27-.48c.31-.39.64-.77,1-1.17l1.6-.59c-.09-.28-.18-.56-.27-.82s.09-.71.13-1Z"/>
        <path class="cls-1" d="M1444.31,97.73a3.33,3.33,0,0,1,2.37.36c.33.38.5.47,1.23-.31s.12-1,2-1.77,2.52-1.46.38-1.32-1.84-.07-3.38,0-2.74,1-3,.53,2.4-1.33,2.4-1.33,1.83-1.27.39-.82-4.18.88-2.89.39-1-.3-1-.3c-.18-.18-.34-.39-.54-.58,0,0-2,.32-1.64,0s-1.75.12-1.34-.11.71-.87.39-.75a16.94,16.94,0,0,0-3.81.7c-1.37.59-.33,1.36.18,1.17a3.58,3.58,0,0,1,1.4-.08s-1.15.5-1.48.63-2.48,1.11-2.48,1.1c.24-.27.48-.53.71-.8s.46-.58.69-.87c0-.19-.1-.36-.14-.56-.69.28-1.35.55-2,.83l-1.67.69-1,.75.69-1.23-1.18,1.15c-.38.33.3,2.66-.1,2.8s-1.44-.61-1.44-.61a8.17,8.17,0,0,0,.82-1.12c.13-.31-1.32-.59-1.32-.59l-2.16,2-1.25,1.1.18,1,1.87-.61c-.63.38-1.21.76-1.81,1.13.08.18.18.35.26.53l1.53-.58a35.07,35.07,0,0,0,4.08-1.19l3.42-1.3.79-.92s2.36-.27,2.74.28,2,.3,2.1.84-.39,1.21-1.29,1.65a3.49,3.49,0,0,0-1.33,1.9s0,.52-.7.81a18.64,18.64,0,0,0-2.65.77c-.45.35-1.42,1-1.42,1s-1.55,2-.44,1.59.74-.55,1.45-.84,3.54-2,4.12-.76,2,.74,2.69.57,2.62-.19,2.56-.42,1.54-.7-.1-1.16-.89-1.19,0-.79,2,.48,2.45-.54,1.84-1.51.28-2-1.66-.9-1.66-.89S1443.78,97.93,1444.31,97.73Z"/>
        <path class="cls-1" d="M1451.23,114.26c-1.81.85-1.81.84-1.81.84l.15.11a8.38,8.38,0,0,0-1.77,2.11,4.89,4.89,0,0,1-1.61,2.14c-.68.45-1.1,2.6-1.1,2.59s0,0,2.52-1.06a14.07,14.07,0,0,0,3.58-2c.14.18.29.38.42.58.4,0,.81,0,1.22,0a3.86,3.86,0,0,0,1.14-.73,1.34,1.34,0,0,0,.33-.92,3,3,0,0,1-.33-.28c-.09-.28-.19-.56-.27-.83s-.09-.59-.16-.88a4.18,4.18,0,0,0-2,.6c-.7.55-1.11.39-1.11.39.18-.31.39-.62.57-.92a7.62,7.62,0,0,0-1.65.49C1450,116,1452.78,113.53,1451.23,114.26Z"/>
        <path class="cls-1" d="M1419.07,93.45c.47-.2,1-.41,1.42-.59a4.43,4.43,0,0,1,.42.29l1.08-.28c-.07-.33-.13-.64-.19-1-.38,0-.79,0-1.16,0l-1.15.41c-.63.31-1.27.62-1.89.94.41,0,.79-.09,1.22-.16C1418.91,93.2,1419,93.32,1419.07,93.45Z"/>
        <path class="cls-1" d="M1418.37,97.39c.63-.23,1.41-.24,1.52-.65a7.72,7.72,0,0,0,.17-.89c.07-.27.13-.54.2-.8-.57.1-1.14.23-1.72.33,0,.21.06.42.09.61,0,0-.24,1.1-.43.81s-.53-1.19-.77-.93-1,1.31-1,1.31c.21.24.39.48.57.72Z"/>
        <path class="cls-1" d="M1412.5,102.66l1.37.07s-.31,1,.87.6,1-.93,1-.93,1.46-.71,1.93-1-.22-1.39-.24-1.39l.91-.34s.94-1.27.62-1.6-1.41.89-1.91,1.07l-1.51.55-.76.74c0,.36-.07.71-.1,1.06h-1C1412.67,101.5,1412.5,102.66,1412.5,102.66Z"/>
        <path class="cls-1" d="M1510,75.36a7.77,7.77,0,0,1-2.13.67,7.2,7.2,0,0,0-2.05.78,9.13,9.13,0,0,1-2.12.88c-.72.22-.42-.2-1.2-.24s-3.66,1.6-3.17,1.73,1.54-.53,2.84-.94-.06.3-.34.39-1.88,1.12-1.88,1.12l2.37-.46-1,.84a12.35,12.35,0,0,1,2.32-.59,10.67,10.67,0,0,0,2.77-.44c.85-.27,1.81-.56,1.8-.75a14.06,14.06,0,0,1,3.58-1.69,7.09,7.09,0,0,0,2.58-1.68C1513.78,74.49,1511.08,74.83,1510,75.36Z"/>
        <path class="cls-1" d="M1421.13,96.66a10.16,10.16,0,0,1,1.63-.6,5.68,5.68,0,0,0,1.3-.57s0-1-.47-.83a16.37,16.37,0,0,0-1.6.76Z"/>
        <path class="cls-1" d="M1427.06,167.76a28.57,28.57,0,0,0-5-1c-2.84-.3-2.85.22-3.62,0s-.68-.34-1.77.18a6,6,0,0,0-2.29,2.17c-.31.56-.12.85-.12.85a20,20,0,0,1,2.48-1.89c.54-.12.49.62,1.17.34a3.14,3.14,0,0,1,2.16-.23c.47.26,1.27-.6,1.27-.6s.78.61.6.94,1,0,1,0,.18.66-.06.83A9.27,9.27,0,0,0,1427.06,167.76Z"/>
        <path class="cls-1" d="M1504.18,191.83c-1-1.14.27-2.47-1.36-2.12s-1,1.08-3.48.38a32.91,32.91,0,0,1-4.24-1.58c-.63-.22-2.84-1.38-3.8-1.23a19.33,19.33,0,0,0-2.31.47c-1,.25-1.75.78-2.55.61s-2.5-1-3.79,1q-.3.48-.45.75a13,13,0,0,0-.47-1.86c-.3-.8-.4-.78-2.19-1s-2.87-.48-3.76-.5a2,2,0,0,0-1.83,1.1c-.11.22-.23.46-.35.72a1.51,1.51,0,0,0,0-1.4c-.57-.79-1.25-.51-1.84-.36s-2,.39-2,.39-1.13-.53-.24-1.2,1-.87.65-1.6.18-.23-1.28-.65-1-.77-1.55-1.52-1.59-1.88-1.59-1.88c-.24-.08-.48-.14-.72-.2a2.16,2.16,0,0,1-.29-.08s-3.53-1.07-4.14-.79a1.31,1.31,0,0,1-.25.06,15.51,15.51,0,0,0-2.72.32c-1.07.34-1.84.61-1.84.61a.89.89,0,0,0-.17-.09c-.46-.2-1.82-.87-2.26-.67s-1.95-2.11-3-1.75l-.12.05a11.94,11.94,0,0,1-2.22.22s1-1.17.49-1.42-.54.09-1.6,0-2.71-.14-1.54-.56.86-.52.86-.52c-1.09.22-2.14.47-3.21.7a3.69,3.69,0,0,1-.92,1.44c-.49.31-1.21-.45-2.15-.1s-.87.82-1.73,1.13a.73.73,0,0,1-1-.49s-.4-.56-.85-.4l-2,.77c-.44.17-1.84,1.76-1,2.33s1.5,1.23.88,1.47-1.42.31-1.61-.55.58-1.85,0-2.25c-.28-.21-.43-.36-.47-.48s.05-.24.2-.4l.69-.77s.38-.86-.46-.32-.83.55-1.09,1.06-.42,1-1,1.25-.73.58-.71.92a1.08,1.08,0,0,1-.22.66s-.57-1.07-.82-.55-1.3,1-1.09,1.72.51,1.76.51,1.76-1.7.82-1.39,1.87a2.74,2.74,0,0,1-.51,2.13s.82-2.47-.51-2.75-1.22-.6-2.19-.13-.77,1.41-1.45,1.69a1.87,1.87,0,0,0-.51.33c-.26.2-.54.31-1.54-.08-1.36-.53-1.42-.41-1.58-1-.22-.09-.84-.36-1.07-.26s-.37-.08-.92.15-1.36.3-1.45.51c.28.7.76,2,1.83,1.9,1.47-.17,1.36-.06,1.88.37s.8.42,1.47.13,1.79-.21,2,.38,1.65.51,1.15-.31c-.27-.45-.5-.46-.61-.47s0-.05-.06-.09.07-.11.17-.28c.41-.69.42-1,.69-1.23s1.06-1,1.46-.46a4.19,4.19,0,0,1,.71,1.51c.09.33.84.41,1.08.8s1.29,4.55,1.37,4.83.49,1.67-.26,2.29-1.07.67-.78,1.44.53.52.29.77a.58.58,0,0,0-.1.12c-.19.39-.33,1.08-.61,1.18s-1.11.29-.54,1.36a1.54,1.54,0,0,1,0,1.81c-.14.3-.34.57,0,1.66s.66,2.45,1.47,1.78.42.76.42,1.28c0,.23-.42.42-.36.63-.18.41-.29,1.23.28,3.35.12.47-.33,1.9.86,1.86s2,.31,3,1.72a18.77,18.77,0,0,1,2.91,4.5c.69,1.73,2.39,2.87,3.07,3.72a19.52,19.52,0,0,1,1.23,1.71,5,5,0,0,0,2.27,2.31,31.8,31.8,0,0,0,3.7,1.68c.91.29,2.37-.39,3.17.5a9.71,9.71,0,0,0,2.34,2.18,1,1,0,0,1,.32.14c.39.25.76.81.81.46a120.66,120.66,0,0,1,4,11.54c.83,3,3.94,12.82,3.95,12.88s2.17,5.14,1.38,4.65.8,1.68,1.23,2.71a12.44,12.44,0,0,1,1.12,3.05c.58,2.22,1.61,5.57,1.89,6.72s1.51,6.78,1.51,6.78-1.11.18.1,2,2.85,2.59,3.17,4.23-.32,3.6.78,5,1.26,3.81,1.81,3.59.22,1.29,1,3.34,1.27,2.73,1.45,2.06-.55-2.31-1-3.84-.82-3.06-.33-2.8a7.54,7.54,0,0,1,1.45,2.8c.13.55.7,2.18,1.27,3.87a31.34,31.34,0,0,1,1,3.72c0,.6-.1,1.22-.17,1.85,0,0-1-.39-.71.65s.45,3.42.45,3.42a14.47,14.47,0,0,1,1.87-.57c.5-.07,1.14-.69,1.24-.26s.07,2.93-.32,3.11-.35,3.05-.35,3.05a30.9,30.9,0,0,0,2.15,3.31c.55.55,2.17,2.27,2.35,3.05v0a7.61,7.61,0,0,1,.72,1.26,8.79,8.79,0,0,0,2.07,3s.32-.52.88.39a4.27,4.27,0,0,0,1.52,1.39s.28.88.59,1.05a7.77,7.77,0,0,0,1.12.36s2.08,1.9,2.39,1.73,1.5-.85,2.25-.61a4,4,0,0,0,2.45,0c.39-.22,1.81-.87,2.29-1.1l.18-.06a5.1,5.1,0,0,1,.85-.93,5.27,5.27,0,0,1,1.26-.66,6.91,6.91,0,0,0,1.31-.47c.44-.59.88-1.17,1.33-1.74-.45,0-4.4,2.63-7.51-1.23s-1.71-2.89-3.57-4.55-3.08-2.75-2.12-3.5,1.09,0,.69-2.53-.72-3.14-.15-3.69,1.08.76.34-2.45-1.39-2.84-2.3-2.49-1.79.25-2.66-1.56-1.06-3.74,0-4.41.93-2.43.77-3.11-1.28-.61-.59-2.43,1.52-2.38.45-2.9-2.57.07-2.91-1-3.07-2.74-1.08-3.23,3.16.85,3.45-.51.66-1.61-.27-2.86-2.85-3.07-2-3.31,5.24-.46,5.93-2.75a7.48,7.48,0,0,0,.22-4.83c-.39-1.47-.83-1-1.91-2.31s1-2.07-.59-2.61-2.82-.26-3.16-1.21c-.11-.32-.09-.49,0-.55a13.62,13.62,0,0,1,2.28.06c1.8,0,2.45,1.46,3.81.44s2.36-1.1,2.69-2.42a.36.36,0,0,1,0-.1c.42-1.07-.16-5-.43-6.64a15,15,0,0,1,0-3.75,1.89,1.89,0,0,1,.82,1.91c-.08,1.47.43.15.57-2.16s-.24-3,.73-4.4,1.08-1.85-.17-3.39-3.1-2.86-2.42-4.23,1.73-3.91,2.28-4.78,2.45-3.75,3.82-3.72,4.38-.28,4.4-.64-1.31-1.47,0-1.67,1.22-.93,1.22-.93c-.11-1-.22-2-.34-2.94a7.09,7.09,0,0,0,.34-2.79c-.24-.8-.4-1.7-.75-2.82s.54-1.06.17-2.59-2.24-7.57-3-9.67.78-1.07,1.25-.65-.2-.27.16-1.87-.09-1.92.11-2.65.84-1.29,1.83-2.48a4.46,4.46,0,0,0,1-4.79A11.79,11.79,0,0,0,1504.18,191.83Z"/>
        <path class="cls-1" d="M1483.83,322.34c-.13-.14.08.37,0,0Z"/>
        <path class="cls-1" d="M1647.11,199.85c-1.3-2.13-1.14-.93-1.14-.93s-.41,2.2-.45,3.08-.36.92-1.07,2.15-1.14,1.72-1.73,2.95-2.22,1-2.69,2-2.06,1.8-2.66,2.91-.4,1.42-.51,3.61.2,2.37.77,4.28-.62,1.12-1.51,3.29-1.07,1.72-1.74,3.73.23,2.19.62,2.82-.1,1.86-.41,3.43-.06,1.2,1.16,3.22,2.34-.1,3.13-.14,1.84-1.66,1.84-1.66c1.84-6.89,3.8-13.58,5.34-19.77a4.19,4.19,0,0,1,.14-.49c-.14-1.88-.19-3,.87-3s.38-1.26.38-1.26-.43-.44-.46-2.11,1.06.55,1.39.23.32-2.17.18-4.54S1648.41,202,1647.11,199.85Z"/>
        <path class="cls-1" d="M1402.19,102.78c.76-.36,3.75-1,2.7-.57s-1.85,1-1.53,1,1.85-.73,2.93-1.11a12.76,12.76,0,0,0,2.19-1.07c.56-.29,2.78-1,2.78-1,.72-.66,1.42-1.32,2.14-2l-2.17.57s0-.73-.54-.55a2.92,2.92,0,0,0-1.18,1.73c0,.49-2.32.73-2.32.73.39-.24.81-.47,1.19-.7l-2.56.33c.33-.24,1.07-.74,1.07-.74s-1.1.73-1.43.68.19-1,.19-1a9,9,0,0,1-2,.85,12.68,12.68,0,0,0-1.67.57c-.46.52-.92,1-1.37,1.57l.21-.12c.56-.29,1.67-.37,1,0s-1,.72-1.32.92S1401.44,103.13,1402.19,102.78Z"/>
        <path class="cls-1" d="M1400.89,105.2a6.09,6.09,0,0,0-1.31-.78,4.45,4.45,0,0,0-1.37.69c-.8,1.06-1.59,2.12-2.36,3.19a36.55,36.55,0,0,1,4.27-2.28Z"/>
        <path class="cls-1" d="M1430.36,136.27a.39.39,0,0,0,.15-.07Z"/>
        <path class="cls-1" d="M1678.59,128.46a3.51,3.51,0,0,1-1.42.37c.56.58,1.1,1.16,1.67,1.74C1678.75,129.86,1678.69,129.16,1678.59,128.46Z"/>
        <path class="cls-1" d="M1415,186.2c-.23-.18-.74-.89-.41-1s.35-.08.81.22a3.33,3.33,0,0,0,1.16.58c.51.14,1.06.15.9-.33a2.72,2.72,0,0,1-.11-1.71c.19-.91-.24-1.8-.18-2.23a8.22,8.22,0,0,0,0-1.14,3.51,3.51,0,0,0-.63-1.07,7.92,7.92,0,0,0-.6-.64s-.61-.35-2.26.42-1.93,1.44-2.48,1.32a.51.51,0,0,0-.24,0c-.38.15-1,.62-.88.3a1.12,1.12,0,0,1,.12-.33c.45-1,.39-.32.6-1.49s-.09-.78.23-2c.15-.59.27-.84.29-1a2.23,2.23,0,0,0-.17-.91,2.49,2.49,0,0,1,0-2c.23-.61.84-1.92-.7-1.27s-3.94,1.58-3.61,2.71a2.55,2.55,0,0,1-.17,2.46c-.49.68-.64,1.11-.45,1.3s.16.8-.62.46-1.15,1-2.38,1.5-.75-.7-1.61-.33-.64.41-1.25-.28-1.52-.7-1.91-2-.48-3.56-.71-4.78.26-1.4.18-1.86c0-.13,0-.28,0-.43a10.46,10.46,0,0,0-.14-1.44c-.14-.61-.28-1.13.89-2s.86-.35,1.3-1.32-.88-.63,1.07-1.39,1.74-.7,2.43-1,1-.81,1.53-.6,1,.53,1.5-.14a1.19,1.19,0,0,0,.23-1.27s-.87-.56,1.44-1,1.92-1.67,2.66-1.05,1.12,1,1.54.36.18-1.32.88-.82,1.75.37,1.7.83,0,.54.33,1.26a5.17,5.17,0,0,0,1.31,2.19c.73.63,1.41,1.62,1.82.19s.58-.79,0-2.52a27.39,27.39,0,0,0-1.27-3.15c0-.15-1.37-1.46.24-3.48s1.69-2.47,2.61-3.25,1-.47,1.39-1.29.27-1.12.64-1.27.15-.42.47-.55a2.59,2.59,0,0,0,.7-.6c-.06-.22-.13-.44-.2-.68l-.81.33c.31-.29.59-.57.93-.84l-.34-.6s-1,.35-.78.2,1-.66.87-1-.44-1.37-.44-1.37-.38-2.3.24-.58.47,2.51,1.07,1.14.27-1.86.27-1.86l.7,0s1.12-1.84,1-2.49-.3-.49,1-1.2,1.82-1.41,2.33-1.62l1.29-.53c-.2,0-.51-.05-.15-1.26.5-1.7.88-2.24,1.76-2.78s1-1.23,1.77-1.57c.24-.1.51-.22.73-.3.49-.19.9-.39.83-.61s0-.38.27-.6a3.63,3.63,0,0,1,.7-.53c.63-.38,1.09-1,1.56-1.21s-1.5,1-2,2.12.37,2.13,1.08,1,.58-1.1,1.49-1.48,1.55-1.14,2.16-1.4a25.37,25.37,0,0,0,2.18-1.53,6.91,6.91,0,0,0,1.54-1.55c.65-.82.19-1-.51-.62s.07-1.07-.2-1-1.1,1-1.06,1.35-.66.71-.86.85a4.39,4.39,0,0,1-1.46.69c-.67.15-1.76.43-1.81,0s-.22-1,.18-1.45a2.73,2.73,0,0,0,.76-.93c.31-.56,1.44-2.06,0-1.47s-1.87.37-3,1.21-1.93,1.84-2.47,2.07a8.28,8.28,0,0,0-1.54,1.82,14.25,14.25,0,0,1-.89,1.16.61.61,0,0,1-.19.16.83.83,0,0,1-.83,0,7.12,7.12,0,0,1,1-1.09c.66-.58.8-1.19,1.52-1.78s.69-.73,1.13-1.09l1.1-.94a7.23,7.23,0,0,0,.86-.73c.22-.27-.06-.76.49-1s2.56-1.2,3.42-1.5,2.31-1.16,2.76-1.28,1.67-.72,2-.87.57-.3,1.38-1.17a5.38,5.38,0,0,1,2.66-2c2.07-1,2.61-1.23,2.64-2s.15-1.2-.16-1.38-1.12.52-1.31-.09-.82-.15-1.54.46a9.29,9.29,0,0,1-2,1.55c-.67.28-1.76.19-.56-.49s1.48-.93,2.25-1.42.55-.47,1.27-.89.69-.53-.49-.27-.84.4-1.91.38-2.14.09-2-.47.39-.06.58-1.16-1.79-4-1.79-4a10.8,10.8,0,0,1-2.06,2.66,12.16,12.16,0,0,0-2.25,2.08c-.18.44-.56.83-.88.3s-.61-.41-.91-.35-2.25.79-.25-.94,1-1,.85-1.5-.73-.37-1.39-.11a.79.79,0,0,1-1.17-.45c-.2-.46-1-.46-2.11.11s-1.79,1.2-2.34,1.18-2.37,0-2.3,1.29-.71,1.54-.56,2,.33.89-.36,1.18-2.42,1.86-1.22,2.3,1.27.47,1.18,1.18-.47,2.59-4.75,5.18a7.54,7.54,0,0,0,.14,2.33c.27.62.15.73-.47,1.35s-.34,1-1.07,1.28-.85.69-1.2.06-.57,0-.62-.79-.64-.36.19-1.43,0-.4.46-1.34.51-1.37.19-1.24-3.26,1.11-3.26,1.09a1.42,1.42,0,0,0-1.6-.22c-1,.41-2.15-.72-3.46-.23a20.05,20.05,0,0,0-2.32,1.07s.7-1.32.48-2-1.69,0-1.68,0,2.47-6,6.19-7.37c.58-.22,1.85-1.72.49-1.26s.83-.7,1.55-1a10.48,10.48,0,0,1,1.42-.74c1-.4-.42.54,1.3-.75s2.09-1.5,2-1.79-1.26.48-2,.39-1.06-.17-1.06-.17.9-.34,1.46-.49a8.87,8.87,0,0,0,1.52-.53c.41-.22.4,0,.52-.63s0-.72.78-1,.83-.57,1.67-.65,0-.17,1.19-.45,0,0,1.53-1,2.44-1.14,2.13-1.65-1.92.24-.7-.79,1.88-1,1.61-1.32-1.55-.33-1.89-.2-.84-.07-1.6.59-.61,1.39-1,1.78-.86.31-1.36,1-.95.76-1.43,1.2-.05.39-.5.43-1.15-.25-.27-.65,1.86-.79,1-1.23-1.6-.59-2.14.18-.93,1.25-1.07,1-.43-1.56-.71-1-1.41,1-2,1.59-1.58,1-2,1.44-.81,1-1.14,1.38-.1.87-.36,1-.57.85-.8.17-.49-.77-1.16-.52l-2,.72a8.05,8.05,0,0,0-1.33.6c-.77.4-1.86,1-1.86,1a1.75,1.75,0,0,0-2-.33,6.75,6.75,0,0,0-2.49,1.07c-.42.47-1,.93-.94,1.37s.08,1-.31,1-.28-.36-.8-.7-.27-.49-1.34-.12-4.22,1.89-4.22,1.89-.59-.15.69-.77,1.51-1.79-.52-1.12-2.38,1.24-3,1l-.07,0c-10.81,17-14.51,37.16-15,56.36,0,.31,0,.65,0,1,.58.26.58.89.88,1.59.39.89.59,2,1.11,2.24s1.26-.22,1.43.32,1.19,1,1.7,1.11,0,.16.41.86.85,0,1.7.79,3.11,1,3.51,2.38.49,1.43.28,2.22-.78,1.47,0,1.76,3,1.35,3.63,1.14,1.88-.51,1.88-.51,2.53.57,3.55.68.64.26,1.7.06,2.56.2,2.72-.5.69-1.56,1.35-1.65,2.32,1.2,2.7,1.33l.44.12a11.3,11.3,0,0,0,1.83.26,3.39,3.39,0,0,0,1.46-.19c1.14-.51.8,0,1.91-.46a.75.75,0,0,1,.58-.07.43.43,0,0,1,.18.15c.15.26.1.83.56,1l2,.69s0,0,.1.1S1415.19,186.35,1415,186.2Z"/>
        <path class="cls-1" d="M1678.51,127.87c-5.2-26.05-17-46.08-42-57.5a3,3,0,0,0-1,.55l-2.57-.16-.61.4-2,.1s.64-.27.68-.67-1.31-.17-1.65-.1-1.2.34-1.2.34a10.38,10.38,0,0,0-1.8.3,9.14,9.14,0,0,0-1.67.88l-.33.61a12.17,12.17,0,0,1-2.92-.1c-.63-.26-1.42-.7.2-.73s-.41-.78-1.81-.75-1.72,0-1.32.8,1.86,1.09,1.94,1.49-.55.14-.55.14a3.22,3.22,0,0,0-1.47-.38,7.85,7.85,0,0,0-3.17,1c-.28.33,1.45.85.91,1a8.82,8.82,0,0,1-3.56-.35c-1-.4-2.53.23-.56.68s1.38,1.06.48.66a6.35,6.35,0,0,0-2.12-.65c-.45,0-1.41-.05-1.41-.05s.29-.27-.51-.72-.43-.87-.43-.87a10.71,10.71,0,0,1-2.34-.5c-1-.37.31-.19.78-.2s2.71.49,4.69.53,4.74-.27,4.61-.85-1.22-1.16-2.62-1.21A7.54,7.54,0,0,1,1610,71a11.61,11.61,0,0,0-4.49-.56,6.06,6.06,0,0,1-2.56-.28,10.4,10.4,0,0,0-2.65.23s-1.09-.54-.61-.55h.46a6,6,0,0,1-1.12-.23,10.88,10.88,0,0,0-1.86-.27,3,3,0,0,0-.16.31c-.1-.22-.21-.46-.3-.68l-1.09.4-.92.57c0-.21,0-.42,0-.62-.39.19-.78.38-1.16.58q.13-.42.27-.81a4.73,4.73,0,0,0-1.66.09c-1,.2-1.4.52-1.36.7s-.71,0-1.08,0-1.4.14-1.4.14-.07.13-1,.15-1.63-.28-1.55,0-1.09.44-1.44.51-.42.75-.42.75a11.7,11.7,0,0,1-2.14.1.63.63,0,0,0-.8.63c0,.43-.73.5-1.07.57a7.31,7.31,0,0,0-1.3.65c-.11.24-.22.47-.32.71,0,0-.22.7-.69.77s-1.29.78-1.91.79-.82.79-1.29.79l-1.11,0H1571s-.08.85-.43,1-.59.13-1.42.33-1.47.22-1.43.41.62.58.62.58c.8,0,1.58.06,2.38.07-1,0-2,.09-3,.16.15.36.32.74.44,1.13l1.92-.48c-.48.39-.93.78-1.41,1.16.37.32.75.64,1.16,1,0,0,0,.55,2.29.34a8.16,8.16,0,0,0,3.09-.84c.46-.06,1.12-1.24,1.34-.7s.24.54,1.08.55h.38c1.19,0-1.54.43-.12.77s1.06.35,1.83,1.33.45,1.13.5,1.42a1.39,1.39,0,0,0,1.34.71c.73,0,1.07-.15,1.14-.43s1.06-.29,1.91-.3,1.67-.16,1.4-1.07a3.65,3.65,0,0,1-.07-1.76s3.14-.64,2.63-1.4-2.5-.5-3.14-1.9,1.73-1.56,3-2.1,2.18-1,2.18-1-1.35-.2-.7-.46.71-.59,1.3-.6,1.75-.22,2.1-.22h.57c.84,0,2.19.11,1.89.36s-.1.59-.47.6a25.37,25.37,0,0,0-2.92,1.29s-1.82.42-1.29,1.22,1.07,1.75,1.07,1.75.07.28.79.34,1.29.48,1.87.48H1597c.36,0,1.53-.16,1.87-.16a6.53,6.53,0,0,0,1.17,0,2.91,2.91,0,0,0,.86-.5h1.31l1.32.2-1.31.5c-.21.08-.44.18-.65.28l-4.37.09s-3,.85-1,1.47a5.35,5.35,0,0,1,.9.37c1.06.55,1,1.13.22,1.19-.94.08-1.26-.34-1.26-.34a3.47,3.47,0,0,0-2.76-.7c-1.48.35-1.36.42-.39,1.13s.1.51.5.79-.37.59.27.86c.29.12-.13.25-.56.38s-1.12.3-.51.42c1.12.21-2.49.3-2.49.3l-1-.58s-1.78.29-2.71.51-2.82.59-2.82.59l-.46-.07c-.29-.06-.63-.1-.95-.15,0,0-1.33-.57-1.65-.36a4.48,4.48,0,0,1-1.78.36,4,4,0,0,1-1.67-.35c-.4-.21-1.34.06-1.21-.65s.28-.57,1.21-.94,1.16-.36.76-.64-1.46.07-1.17-.43.91-1,.31-1a3.17,3.17,0,0,0-1.66.34,8.17,8.17,0,0,1-.91.5s-1.51.09-1.46.36a3,3,0,0,0,.17,1,9.32,9.32,0,0,0,1.55,1.15s-.23,1-.72,1,.16.08-2.08.52l-.35.06c-2.7.51-2.93-.14-3.68.81s0,1.11-1.87,1.34l-.24,0c-1.58.2-1,.42-1.37.64a9.51,9.51,0,0,1-1.38.34c.12-.08.07-.18-.31-.3-1.2-.4-1.91.27-1.2-.4s1.12-.45,1.43-1,.68-.61-.1-.78-1.68.49-2.4.17.27-.18-.19-.88.07-.82-.94-1.26-1.48-.17-1.48-.17.74-1.08-1-1.39a5.47,5.47,0,0,0-2.53-.05,6.83,6.83,0,0,1,1.68-.53c1.6-.43,1.58-1.16,1.58-1.16s-1.85-.26-2.62-.25-1.41.46-1.52.31.13-.58.77-.78a9.77,9.77,0,0,0,1.29-.51l-3.21-.16a6.61,6.61,0,0,1-1.43,1c-.82.44-1,.75-.94,1.09s1.61.43,1.61.43-1.23.6-.73.59,2.34-.11,1.77,0-1.43.36-1.43.36c.4,0,.78,0,1.18,0,0,0-1.59.71-1.22.7s2.25-.22,2.25-.22.85-.26.92.33a1.94,1.94,0,0,0,.78,1.08s1.51.17-.2.66-1.63.49-2.12.49,1.25.72.68.88-2.08,0-2.16.17.74.56,1.34.56,2,.68,2.86-.21a2,2,0,0,1-1.81.83c-1.27-.05-2.56.28-2.66,1.31a9,9,0,0,1,2.57-.29c1.67,0,1.47-.16,2.45-.16s1.08-.06,2.16-.06,2.17,0,2.94-.11a14.89,14.89,0,0,0,1.59-.18q-.22.07-.21.21c.05.36,0,1-.67,1a.93.93,0,0,0-.84.62,4.1,4.1,0,0,1-2.5-.16c-1-.54-1.09-.37-.78.23s.74.78-.18.78-1.85.08-1.85.08a21,21,0,0,0-2.67-.16c-.65.07-.58.94-.56,1.25s.91-.47,2.43.32a14,14,0,0,1,2.8,1.64,3.21,3.21,0,0,1,.51,1.46c0,.62.59,2.35-.21,2.35a4.75,4.75,0,0,0-.94.12,11.35,11.35,0,0,0-1.15.3c-3.26-.24-6.54-.41-9.87-.46,0,0-4.28.72-2.68,2,0,0,.06.16.13.43a8,8,0,0,1,.25,1.75c.08,1.34-1.21,1.88-1.61,2.34s-.94,1.36-.22,1.32.93,2.17.93,2.17-.27.28,1.42.18c1.47-.09,1.23.12,1.53,0l.17-.09c.52-.31,1.94-.57,2.39.4s.63,1.12,1.44,1,.25-1,1.62-1,1.66-.3,3.15-.32l2.46,0s.89-1.07,1.55-1,.74-1.6,1.67-1.61-.76-1.62.66-2.4,1.61-1.62,2.68-1.63a7.68,7.68,0,0,0,2-.34c.24-.59.45-1.18.66-1.75,0,0-.48-1.15,1.21-1.16s3.45.81,4.57.64a3.32,3.32,0,0,0,1.93-1.08.5.5,0,0,0,.17-.2c.13-.37,0-.79,1.82-.53,2.17.32,2.92.32,3,1.3s-.07.63,1.39,1.36a16.75,16.75,0,0,0,3.66,1.62c1.12.23,2.21-.18,3.57,1.3s2.86,1.88,1.78,2,.32.76-1.65.78-2,.2-3.22.21-1.7.45-1.32.78a35.9,35.9,0,0,0,4.48,1.39c.24-.51.49-1,.73-1.54,0,0,1.36-.11,1.8-.68s.76-1.12,1.49-1.12-.83-1.17-1.34-1.41.5-1.24,1.8-.18,2.69.23.28-.9a11.73,11.73,0,0,0-3.63-1.12c-.39-.16-.57-.74-.57-.74l-1.89-.4c-.23-.29-.47-.58-.7-.88,0,0-.16-.41-1.45-1a19.61,19.61,0,0,1-2-1s-.78-1.43.35-1.43c.78,0,.88-.32,1.21-.23a2.2,2.2,0,0,1,.66.37,10.42,10.42,0,0,0,2.12,1.27c.37.15,1,1,2,1.2s1.29.63,1.78.71a12.17,12.17,0,0,0,1.48.07.76.76,0,0,0,.18.09c.77.32,1.58.8,2.36,1.19a5.8,5.8,0,0,0,.31,1.88c.26.24.88,1.63,1.59,1.55a1.26,1.26,0,0,1,.33,0c.39,0,.46.27.69.67a6.6,6.6,0,0,1,.48,1.4c.3.31.61.6.92.91a7.38,7.38,0,0,0,1.35.5c.48.08,1.92.13,1.92.13-.07-.28-.13-.55-.18-.84l.57-.09-1-.82,1.57.48.67-.5c-.63-.47-1.26-.93-1.91-1.39-.34-.39-.68-.76-1-1.14,0,0-.32-1,.32-.41s.75.32,1.3-.18-.61-.31.54-.49,1.54-.53,1.85-.28l.14.09a5.74,5.74,0,0,0,1.83.62.12.12,0,0,1,.1,0h-.1c-.07,0-.13.21-.07.84a3.91,3.91,0,0,0,.65,2c.27.4.81,1.14,1.38,1.13a1.42,1.42,0,0,1,1.32.48c.27.41.78,1.16.78,1.15l2.2.14s.72.32,1,.06.75-.67.75-.67a2,2,0,0,1,2,.13c1.06.63,1,.73,2.3.62s.72-1.08,1.52-.92a12.83,12.83,0,0,0,2.48.11.89.89,0,0,1,.59.13.78.78,0,0,1,.12.45,21.84,21.84,0,0,1,.18,2.74c-.07.37-.06.82-.47,1.09a.36.36,0,0,1-.12.08c-.54.36-1.19.54-1.15,1.21s.18,1.1.2,1.7a16.1,16.1,0,0,0,.52,3.21,5.38,5.38,0,0,0,.86,1.93c1,1.25.58.48,2.31,2.18s1.08,2.52,2.2,3.37,2,.26,2.7,2.39c0,0-.39,2.81,1,3.65s2,.45,2.84,2.15,2,1.85,2.7,2.52a2.18,2.18,0,0,1,.57.69,2.62,2.62,0,0,1,.07,1,12.25,12.25,0,0,0,0,2.72c.21,1.2.23,1.71.76,2.25s.44,1,2,.43.33-1.08,2.12-1.18a15.64,15.64,0,0,0,4-1,1.52,1.52,0,0,1,1.46-1.39c1.36-.08,1.46-.73,2.5-1.26s1.77-.54,1.87-1.19.61-1.4.91-1.41h.1l1.14,0a14,14,0,0,0,2.06-.19c.51-.11-1-1.31.3-1.37s1.75.09,1.85-.71,1.43-1.22,1.43-1.22,0-.7,0-1-.63-1.28.3-1.32.4,0,1.62-.95,1.11-2,.79-2.36-.32-.33-.73-.66-.92-1.08-1.23-1.06a3.42,3.42,0,0,1-1.75-.2,5,5,0,0,1-1.56-1.15,2.31,2.31,0,0,1-.19-.44,12.07,12.07,0,0,1-.25-1.48,19.07,19.07,0,0,1-3,2.73c-.81.37-2.92.25-3.41.48a.54.54,0,0,1-.33,0,7.54,7.54,0,0,1-2.75-2.29c-.77-1.09.17-1.06-1-1.94a14.56,14.56,0,0,1-2.36-2.24,1.52,1.52,0,0,1-.38-.74c0-.56,1.8-2.73,2.69-1.5s1.88,2.73,4,3.25a4.2,4.2,0,0,0,2.53,1.54c1.56.2,3.4-1.38,4-.89s.58,2,2.52,2.2,3.5.72,4.52.68c.36,0,.71-.06,1.12-.11a28.92,28.92,0,0,1,3.66-.22c2.94,0,3.13-.86,3.74,0s.32,1.68,2.13,1.61a1.5,1.5,0,0,1,.62.09C1676.55,127.11,1676.27,128.19,1678.51,127.87Zm-79.76-37.65.17.14,0,0A1.54,1.54,0,0,0,1598.75,90.22Zm5-5.9s0,0,0,0,0,0,.07,0ZM1652,134.9a.63.63,0,0,1-.13.09h0Zm18.39-27,.58,0h0Z"/>
        <path class="cls-1" d="M1576.36,103.46c1,0,1.11-.51,1.05-1.06s-1.59-.84-1.75-.42C1575.66,102,1575.41,103.47,1576.36,103.46Z"/>
        <path class="cls-1" d="M1381.29,180.16c-.88-.1-1-1.59-1.55-2.69s-1.48-.94-1.94-1.85a6.39,6.39,0,0,0-.51-.89c0,1,.11,2.1.17,3.14a.68.68,0,0,1,.44.29,2.6,2.6,0,0,1,.55,1,13.72,13.72,0,0,1,.28,1.36c.83.26,1.65.51,2.46.8,0,0,1.39,1.76,1.48.53S1382.17,180.27,1381.29,180.16Z"/>
        <path class="cls-1" d="M1425.47,94.07c-.59.3.17,1.29.48,1.19s1.24-.47,2.19-.81l2.92-1.07c1-.39,1.93-.62,2.68-.89s1.31-.75,2.88-1.49,1.46-1.58,1.46-1.58-2.73.9-3,1-3.06,1.35-6.19,2.49.72-1.06.73-1.07,3.45-1.42,3.78-1.54,2.41-1,2.41-1l3.94-1.31s1.41-.5,1-.62-.88-.56.23-.95a20.51,20.51,0,0,0,2.16-.92,5.22,5.22,0,0,0,.33-.54s3.42-1.41,3.74-1.6a14,14,0,0,0-1.9.65c-.57.19.18-1.17.82-1.54s4.4-1.45,5.44-1.78,1.83-.59,2.62-.92,1.51-1.44,2.42-1.73,2.63-1.11,3.54-1.46,3.32-1.37,3.32-1.37l2.2-.86a7.51,7.51,0,0,0-3,.11c-1.66.4-2,.57-3.29,1l-3.26,1c-1.64.49-2.45.73-4.3,1.3s-1.49.46-4.34,1.36a26.93,26.93,0,0,0-5.43,2.23,30,30,0,0,1-5.29,1.92,2.87,2.87,0,0,0-1.62,1.16c.08.23.14.48.23.71a2.74,2.74,0,0,0,.35.49,2.9,2.9,0,0,1-1.26.17,3.91,3.91,0,0,0-1.4.12,11.21,11.21,0,0,1-1.26.62l-2.59.89c-.64.22-1.34,1.46-1.34,1.46.12.28.24.57.38.85a4,4,0,0,0,1.57.17c.41-.15,1.49-.53,2.11-.84s2-.88,2.33-1a6.55,6.55,0,0,1,1.41,0s0,.44-.32.55a3,3,0,0,1-.93.06l-1.51.54c-.44.15-1,.87-1.58,1.1s-1.28.44-1.7.6-.75.62-1.49.89a12.94,12.94,0,0,1-3.11.49c-.81,0-1.21,1.35-1.21,1.34l2.08-.75S1426.08,93.76,1425.47,94.07Z"/>
        <path class="cls-1" d="M1575.55,105.16c.06.66.11,1.34.17,2,.31,0,.64,0,1,0,.11-.17.23-.34.34-.52l.86-.13s.4-2,.19-2.14c0,0-.5-.37-.73-.56s-.85.08-.85.08c-.23.08-.47.17-.73.24l-.72.33Z"/>
        <path class="cls-1" d="M1397.24,111.86c.11.23.26.47.38.7,0,0,.75-.34,2.66-1a11.44,11.44,0,0,0,3.89-2.37c.39-.42.48.12,2.16,0s1.25-.46,2.9-1.06-.11-.69.17-.79a9.28,9.28,0,0,0,2.5-1.29c.67-.61-2.69.5-2.67-.69s1.69-3.4,1.69-3.4a.78.78,0,0,0,.48-.53c-.72.25-1.45.51-2.17.78.1.39.21.79.3,1.18a1.74,1.74,0,0,0-1.31-.27c-.85.11-2.07,1.38-1.73,2.29l0,.07c-.14-.25-.44-.59-.86-.24s0-.76-.22-.29-1.31.64-2.21.58-.88.31-2.18.66-1.55.63-2.81,1-1.53.61-1.88,1.39,1.43.55.47.88-1.65.82-1.24.78,4.78-1,4.78-1l-2.7.92c-1.45.48-3.1,1-3,1.92S1397.24,111.86,1397.24,111.86Z"/>
        <path class="cls-1" d="M1543.94,90.33c1.24.16,1.23-.12,2.4-.46a14.42,14.42,0,0,1,2.78-.59c1.68-.26.45-1.63.82-1.88,0,0,.81.24-.24-.2s-1.62-.52.75-.64,0-.59-.57-.77-.89,0-2.47.07-.92,1-.92,1a2.76,2.76,0,0,1-1.71-.07c-1.13-.32-1.42,0-1.55.9s.35.53,1.25.48-.06.39-.86.54-1.26.7-1.23,1.07S1542.72,90.17,1543.94,90.33Z"/>
        <path class="cls-1" d="M1574.86,64.14c1.09,0,1.48-.49,2.46-.52s0,.45,0,.45c-2.7.32-2.79.23-.73.76s1.59,0,2.92.18.64,0,1.48-.75.46-.55,1.94-.67,1.32.46,2,.57a20,20,0,0,0,2.9.17c1.45,0,1.73-.3,1.1-.29a7.73,7.73,0,0,1-3-.41,24.29,24.29,0,0,0-4.61-.61,12.44,12.44,0,0,1,1.46,0c.47.07,2.44.09,3.7.06a16.43,16.43,0,0,0,3.1-.38c1.61-.3.71-.59.71-.59l-4.09.12-4.19.12c-1.7.06-2.15.28-4.65.35l-4.1.12c-1.25,0-1.23.39-1.08.86S1573.78,64.17,1574.86,64.14Z"/>
      </g>
    </g>
  </g>
</svg>
