<svg xmlns="http://www.w3.org/2000/svg" xmlns:xlink="http://www.w3.org/1999/xlink" viewBox="0 0 65.12 52.17">
  <defs>
    <style>
      .cls-1 {
        fill: none;
      }

      .cls-2 {
        clip-path: url(#clip-path);
      }

      .cls-3 {
        fill: #fff;
      }
    </style>
    <clipPath id="clip-path" transform="translate(0 0)">
      <rect class="cls-1" width="66" height="53"/>
    </clipPath>
  </defs>
  <title>Fichier 1</title>
  <g id="Calque_2" data-name="Calque 2">
    <g id="Calque_1-2" data-name="Calque 1">
      <g class="cls-2">
        <path class="cls-3" d="M20.84,28.89a67,67,0,0,0,5.57,7C21.44,41.64,14.2,46.84,0,46.84V36.44c11.26,0,15.82-3.74,19.86-8.92l1,1.37Zm11.12-8c1,1.42,2,2.75,3,4,3.43-3.78,7.74-6.49,16-7l-2.53,6.41a.64.64,0,0,0,.21.74.66.66,0,0,0,.38.12.69.69,0,0,0,.39-.12L64.87,13.08a.64.64,0,0,0,0-1L49.35.13a.64.64,0,0,0-.77,0,.64.64,0,0,0-.21.74L51,7.45c-11.15.59-17.72,4.44-22.36,9C29.86,18,30.94,19.5,32,20.91Zm17.39,6.24A.63.63,0,0,0,49,27a.63.63,0,0,0-.59.87L50.9,34.3c-11.79-.76-15.53-6-20.17-12.43C25.44,14.5,18.86,5.33,0,5.33v10.4c13.52,0,17.39,5.38,22.28,12.2C27.38,35.05,33.67,43.8,51,44.71l-2.6,6.59a.64.64,0,0,0,1,.74L64.87,40.09a.6.6,0,0,0,.25-.5.62.62,0,0,0-.25-.5Z" transform="translate(0 0)"/>
      </g>
    </g>
  </g>
</svg>
